<?xml version="1.0" encoding="UTF-8"?>
<svg id="Capa_2" data-name="Capa 2" xmlns="http://www.w3.org/2000/svg" viewBox="0 0 161.07 162.31">
  <defs>
    <style>
      .cls-1 {
        fill: #e08f72;
      }
    </style>
  </defs>
  <g id="Capa_1-2" data-name="Capa 1">
    <path class="cls-1" d="M149.86,162l-51.94.15c-6.11.02-11.55-5.62-11.56-11.51l-.16-50.15c-.02-7.32,4.55-13.81,12.69-13.81l50.66.03c6.32,0,11.47,5.66,11.48,11.75l.06,51.17c0,5.75-4.43,12.34-11.21,12.36ZM90.79,119.89l28.68-28.79-21.8-.44c-2.49-.05-7.08,4.28-7.06,6.91l.18,22.32ZM90.72,147.95l56.71-56.74-21.49-.55-35.55,35.59.33,21.7ZM109.31,157.4l47.55-47.73-.07-11.41c-.01-2.16-1.91-4.85-4.3-6.06l-61.05,61.1c1.4,2.77,4.36,4.77,6.97,4.64l10.9-.53ZM136.99,157.7l19.87-19.99-.14-21.88-41.59,41.74,21.86.13ZM152.91,156.63c4.59-2.93,4.43-7.64,3.41-12.45l-13.35,13.22c3.59.61,7.81.6,9.94-.77Z"/>
    <path class="cls-1" d="M64.1,162.06l-48.57.25c-6.62.03-15.21-3.02-15.25-11.22L0,100.55c-.04-7.39,4.96-13.94,12.77-13.93l50.74.09c7.65.01,12.05,6.97,12.01,13.73l-.26,51.82c-.02,4.53-6.66,9.77-11.16,9.79ZM64.28,157.79c3.74,0,6.97-4.44,6.98-7.62l.02-51.38c0-5.42-4.87-8.05-9.58-8.02l-50.51.28c-3.74.02-6.86,4.96-6.86,8.42l.02,50.09c0,4.47,3.79,8.28,8.32,8.27l51.61-.04Z"/>
    <path class="cls-1" d="M62.35,75.79H12.6c-6.24.01-12.41-5.16-12.41-11.64V11.96C.17,4.65,6.79-.05,13.55,0l51.21.35c5.95.04,10.71,6.66,10.7,12.19l-.11,51.94c-.01,6.48-6.51,11.31-12.99,11.32ZM63.91,71.49c4.44-.92,7.39-3.99,7.39-8.15l-.03-50.57c0-4.88-3.88-8.29-8.57-8.3l-49.09-.1c-4.75,0-9.24,2.76-9.24,8.24l-.07,49.94c0,4.84,2.81,8.01,7.62,8.91l52,.04Z"/>
    <path class="cls-1" d="M149.19,75.74l-50.46.04c-7.72,0-12.5-6.05-12.49-13.24V12.57c.01-7.92,6.02-12.42,13.44-12.43l49.58-.05c6.7,0,11.78,5.92,11.78,12.38v51.12c.01,6.14-4.8,12.14-11.85,12.14ZM149.85,71.42c4.72-1.28,7.17-4.43,7.15-8.87l-.21-50.98c-.02-4.23-4.27-7.18-8.05-7.17l-51.09.08c-4,0-7.17,4.15-7.17,8.02v51.07c-.02,4.29,3.25,7.26,7.4,7.9l51.96-.05Z"/>
    <path class="cls-1" d="M47.46,147.64l-19.01.21-.27-13.74-13.39-.66-.16-15.96c-.01-1.29,2.65-3.04,3.89-3.05l9.6-.07.32-13.34,18.79-.08.47,13.35,13.18.44.4,18.36c-4.86.71-7.54.81-13.31.84l-.51,13.69ZM43.39,143.85l.34-13.87,13.19-.09-.14-11.32-13.15-.16-.22-13.53-11.04.08-.24,13.5-13.39.06.02,11.22,13.33.41.34,13.82,10.97-.13Z"/>
  </g>
</svg>