<?xml version="1.0" encoding="UTF-8"?>
<svg id="Capa_2" data-name="Capa 2" xmlns="http://www.w3.org/2000/svg" viewBox="0 0 162.01 162.09">
  <defs>
    <style>
      .cls-1 {
        fill: #e08f72;
      }
    </style>
  </defs>
  <g id="Capa_1-2" data-name="Capa 1">
    <path class="cls-1" d="M71.79,151.78c-8.85,8.77-21.88,11.07-33.31,10.1-15.83-1.34-28.71-11.84-34.44-24.83-6.52-14.78-5.59-33.73,6.01-45.55L87.71,12.38c6.23-6.34,14.97-9.95,23.45-11.58,14.36-2.75,28.29,1.72,38.32,11.46s14.16,23.52,11.98,37.69c-1.8,11.76-7.92,20.78-16.23,29.02l-73.44,72.81ZM105.7,112.16l42.27-42.49c7.18-7.22,9.22-17.91,9.88-27.6-.53-18.79-13.34-33.53-31.6-37.15-12.98-2.15-25.66,1.7-35.5,10.52l-40.5,40.95,55.45,55.76ZM68.44,149.3l34.26-34.11-55.48-55.68L13.63,93.92c-13.57,15.82-11.78,38.37,1.91,52.3,14.2,14.44,35.82,15.71,52.89,3.08Z"/>
    <path class="cls-1" d="M123.55,20.76c-15.93-4.37-25.51,9.46-28.86,11.57-.7.44-2.27-.72-3.38-1.69,7.5-10.88,19.56-16.49,33.03-14.49l2.51,2.35c.71.67-2.2,2.56-3.31,2.26Z"/>
  </g>
</svg>