<?xml version="1.0" encoding="UTF-8"?>
<svg id="Capa_2" data-name="Capa 2" xmlns="http://www.w3.org/2000/svg" viewBox="0 0 215.72 165.6">
  <defs>
    <style>
      .cls-1 {
        fill: #e08f72;
      }
    </style>
  </defs>
  <g id="Capa_1-2" data-name="Capa 1">
    <path class="cls-1" d="M94.37,146.45c.06,1.23-1.88,3.52-2.87,4.2s-4.49.37-4.96-.72c-.44-1.02,2.29-3.13,3.51-3.8.43-3.48.3-9.03-.65-12.74-1.07-4.18-5.52-5.82-9.06-5.33s-7.72,3.83-7.13,8.25l1.48,11.19c1.53.27,4.55,1.41,4.23,2.31-.56,1.56-3.31,2.64-4.43,2.24s-3.44-2.19-3.63-3.44l-1.67-11.51c-.93-6.41,4.43-10.31,8.56-12.96-.39-6.66-.88-12.73,1.11-20.04-14.86,3.39-25.67,12.45-26.44,28.83l-.94,20.03c-.45,9.54,14.38,7.34,8.32,12.5-4.96.12-11.58-3.69-11.92-9.51-1.23-21.14-.54-45.26,20.36-52.57l21.53-7.53c1.64-2.92,1.79-7.73,1.21-11.07-5.04-4.66-7.63-10.26-9.25-17.03-4.95-2.08-7.68-6.18-8.23-11.89-.89-4.06,1.24-7.79,3.25-10.97l-.58-16.47c-.45-12.89,8.92-23.18,21.14-26.8s24.63-1.42,34,6.66c13.45,11.6,7.77,30.76,9.06,36.4,1.09,4.76,4.86,7.19,2.93,13.37-1.16,3.69-4.42,6.54-7.42,10.24-3.76,4.65-4.11,12.87-10.57,16.33l.82,10.81,20.9,7.09c11.92,4.04,21.01,13.78,21.44,26.55l.86,25.69c.2,5.95-5.34,10.21-10.78,10.84-.86.1-2.58-.65-3.06-1.27-2.68-3.52,9.57-2.27,9.7-9.73.3-16.68,1.01-39.2-14.55-45.62l-12.57-5.19c2.56,7.27,1.48,15.15.73,22.67,4.1,2.36,6.94,6,5.9,10.89-.89,4.15-4.48,7.72-9.4,7.46-4.6-.24-8.1-3.81-8.65-8.28-.67-5.44,3.31-7.82,7.05-10.51,4.19-9.26,2.42-25.23-5.97-25.19-6.07,8.59-12.02,16.95-19.48,24.46-7.57-8.03-13.33-15.67-19.06-24.2-7.94-.19-9.82,13.33-6.55,22.7,5.25,1.09,10.83,3.49,11.1,9.25l.62,13.38ZM131.04,35.73c1.52,1.97,2.72,4.77,4.56,8.58l.95-12.42c.58-7.63-2.52-15.58-8.19-20.55-6.61-5.79-15.58-8.03-24.08-6.85-10.48,1.46-20,7.64-22.93,18.05-1.92,6.81-1.31,14.36-.16,21.6,2.4-5.4,5.95-12.32,12.3-13.11,17.62,8.17,33.32-.75,37.55,4.7ZM131.85,64.18c3.04-1.24,5.98-3.2,6.83-5.89.91-2.85.81-6.76-.4-8.64l-5.82,2.01c-.98-4.48-2.32-9.79-4.44-12.84s-19.34,3.85-34.93-3.53c-8.96,4.04-7.45,17.9-9.92,16.57l-4.48-2.4c-1.21,1.62-1.34,5.75-.41,9.18.59,2.15,3.54,4.31,6.42,5.48,2,6.34,4.27,12.88,9.05,17.59,8.69,8.54,20.96,8.2,29.51-.29,4.62-4.59,6.83-10.85,8.57-17.23ZM123.57,99.76l-2.68-11.61c-7.66,5.29-17.64,5-24.81.27l-2.72,11.83,15.1,19.42,15.1-19.92ZM135.13,130.39c-3.56.63-5.17,3.85-4.19,6.8.71,2.14,3.71,4.21,5.91,3.51,2.56-.81,4.32-3.49,4.02-6.19-.23-2.09-3.36-4.54-5.75-4.12Z"/>
    <path class="cls-1" d="M191.22,104.07c-1.64-1.25-1.28-5.79-.18-7.5l6.42-9.99c1.59-2.48,4.79-4.87,5.27-7.45.66-3.49-.68-6.51-2.19-9.35.61-8.01,1.04-16.54-4.93-22.85-9.8-10.35-27.23-9.13-35.5,2.28-4.62,6.37-3.3,13.27-3.71,20.61-1,2.92-3.09,6.37-2.02,9.65.8,2.48,3.94,4.85,5.35,7.16l6.15,10.09c.76,1.26,1.88,5.18.88,6.22-.99,1.05-3.17,2.12-5.08,3.2-.23.53-.04,2.29.56,2.41.61.13,2.82.57,3.27,1.06l12.38,13.64c6.18-4.11,9.21-8.87,13.68-14.84l8.58,3.06c6.98,2.49,11.52,8.79,11.53,16.93l.03,14.38c0,.74,1.72,2.59,2.32,2.16.45-.32,1.65-1.81,1.65-2.34l.04-13.63c.05-15.83-9.99-20.97-24.5-24.9ZM164.92,49.82c7.22-8.26,22.22-7.27,28.17.44,3.82,4.95,4.3,11.04,3.46,15.99l-3.97-5.88c-.81-1.22-4.25-.7-6.54-.59-12.05.58-18.54-6.46-25.09,6.38-1.39-6.07.14-11.95,3.97-16.34ZM177.12,73.01c-6.58-4.37-13.71.64-13.09-1.89l.75-3.06c.92-3.77,4.78-6.7,8.54-5.74,5.58,1.41,10.24,1.56,15.95,1.2,2.49,1.26,4.52,6.04,3.88,8.96-10.73-5.19-12.7,2.75-16.03.53ZM190.44,76.86c0,2.14-1.91,3.87-4.26,3.87s-4.26-1.73-4.26-3.87,1.91-3.87,4.26-3.87,4.26,1.73,4.26,3.87ZM175.26,76.86c0,2.14-1.91,3.87-4.26,3.87s-4.26-1.73-4.26-3.87,1.91-3.87,4.26-3.87,4.26,1.73,4.26,3.87ZM178.53,118.33l-9.06-10.53,1.51-6.95c4.81,1.57,9.81,1.65,14.61-.05l2.02,6.38-9.08,11.15ZM181.31,97.73c-5.72,1.38-12.34-1.86-14.76-7.61l-3.02-7.15c-3.91-1.35-6.55-4.6-4.72-9.26l6.39,2.47c-.07,3.46,1.23,5.93,4.22,6.46,2.14.38,5.92-.88,6.88-2.7l1.33-2.52c.25-.47,1.93.26,2.2.59.65,2.58,3.63,4.96,6.24,4.75,3.61-.3,5.84-2.54,5.92-6.71l6.2-2.36c3.52,5.58-2.86,7.26-4.33,9.92-3.3,5.94-5.02,12.31-12.55,14.12Z"/>
    <path class="cls-1" d="M22.84,108.76c-10.65,2.37-18.56,8.17-18.63,18.6l-.09,14.92c0,.81-1.31,2.34-1.94,2.63S-.01,143.09,0,142.31l.31-16.7c.13-7.09,4.01-14.06,10.54-16.5l13.21-4.94c1.27-1.38,1.34-5.38.48-6.87l-6.26-10.78c-4.97-4.33-7-9.88-2.43-15.92l-2.09-16.53c-.79-6.26,1.79-11.33,7.64-13.46,9.36-3.41,19.49-3.65,28.88-.35,6.03,2.12,9.38,7.2,8.62,13.76l-1.95,16.72c4.57,5.33,2.37,11.82-2.56,16.02-2.73,7.99-8,10.01-6.84,15.57.36,1.75,3.54,2.7,6.19,4.01.38,1.12-1.99,2.8-4.04,2.79l-11.38,21.48-2.11,1.12c-.44.23-1.55-1.07-1.89-1.69l-11.48-21.27ZM53.54,62.37l.63-3.3c.58-3.04,1.94-9.94-1.27-12.26-12.67-9.17-36.03-4.4-35.12,4.85l1.05,10.59c11.14,3.77,34.5,1.2,34.7.12ZM40.62,97.44c5.82-2.98,8.74-7.88,9.55-13.92,4.12-1.11,6.1-5.32,5.02-8.46-1.65.41-3.78.52-4.04-.33l-2.17-7.13c-9.33.88-16.16.94-25.21.33l-2.17,7.5-4.06-.32c-.98,3.24.99,7.16,4.39,8.41l2.68,6.46c2.59,6.24,9.28,9.58,16,7.45ZM45.72,107.96l-2.43-7.02c-3.99,1.31-9.24,1.4-13.76-.07l-2.32,7.37,9.12,17.2,9.39-17.47Z"/>
    <path class="cls-1" d="M196.3,136l-.47,3.54c-.08.63-2.68,1-2.79.37l-.52-2.88-.32-3.18c-.08-.81-2.5-.68-3.44-.93l-2.68-.71c-.57-.15-.51-2.13.02-2.38s1.95-.69,2.58-.74l3.36-.27c.65-.05.52-2.04.69-2.72l.66-2.74c.13-.55,2.22-.41,2.35.14l.57,2.57c.1.46-.09,2.25.35,2.35l2.96.7,2.7.63c.62.15,1.01,2.73.37,2.8l-3.04.33-2.43.26c-.68.07-.78,1.9-.91,2.87Z"/>
    <path class="cls-1" d="M38.73,56.45l-1.4,3.79c-.26.71-2.95-.39-2.98-1.14l-.13-3.33-3.35-.56c-.74-.12-1.39-2.44-.78-2.84,5.54-3.65,5.67-7.27,6.23-6.35l1.64,2.67c.54.88,2.05,2.4,2.99,2.85l2.13,1.03c.63.31-.8,2.13-1.48,2.32s-2.67,1.03-2.87,1.57Z"/>
  </g>
</svg>