<?xml version="1.0" encoding="UTF-8"?>
<svg id="Capa_2" data-name="Capa 2" xmlns="http://www.w3.org/2000/svg" viewBox="0 0 162.92 187.42">
  <defs>
    <style>
      .cls-1 {
        fill: #e08f72;
      }
    </style>
  </defs>
  <g id="Capa_1-2" data-name="Capa 1">
    <path class="cls-1" d="M141.72,97.59c3.3-1.45,7.49-.18,8.71,3.18l12.29,33.86c.72,1.98-.57,6.45-2.31,7.17l-16.3,6.75-4.08-2.34-13.8,9.89c-.5,2.16-1.3,5.88-2.73,7.45-1.82,1.99-5.42,2.73-8.09,3.31-1.89,6.32-4.48,7.76-10.96,7.95-1.03,5.48-5.7,7.22-10.69,6.65-1.72,2.23-4.49,5.39-6.73,5.82-3.29.62-7.09-1.45-9.83-2.48-2.44,1.34-5.77,3.03-8.66,2.52-2.64-.47-4.94-3.71-6.31-6.54-6.46-.73-8.8-1.37-10.75-7.81-2.1-.1-5.74-.41-7.27-1.57s-2.88-4.74-3.68-6.55c-2.48-.6-6.34-1.45-7.6-3-1.94-2.37-2.38-5.39-1.28-9.12l-8.66-6.44c-2.49,1.61-4.91,2.21-7.09,1.23l-12.66-5.69c-2.8-1.26-3.9-4.72-2.83-7.68l12.32-33.97c.57-1.56,3.47-3,6.04-3.59l.13-86.08C18.91,3.14,25.37-.02,31.78,0l75.04.19c2.59,0,6.21,1.36,7.96,3.08l23.26,22.85c3.42,3.36,6.16,7.07,5.94,12.24l.06,51.07c-.47.97-1.3,2.37-1.89,2.86-.73.61-2.37-1.86-2.37-2.85l.07-51.86-21.15.03c-4.77,0-9.4-4.38-9.38-9.11l.09-24.19H28.82c-3.56,0-5.64,4.25-5.63,7.29l.1,86.99,13.3,5.86,1.32,5.22,8.55,3.27,22.34-5.81c9.24-2.4,18.63-2.73,27.91.33l17.27,5.69c2.91.96,9.26-2.14,11.1-4.02.94-2.49,2.11-5.15,4.12-6.04l12.52-5.5ZM118.53,33.48l20.15-.5-24.97-25.07-.16,19.75c-.02,2.26,2.56,5.89,4.98,5.83ZM18.72,143.81l14.88-36.25-16.38-7.18-13.56,37.05,15.05,6.38ZM159.29,137.6l-13.45-37.05-16.31,7.25,14.8,36.3,14.95-6.5ZM124.45,152.47l14.58-10.75-12.1-28.47c-4.15,1.75-8.93,4.65-12.92,4.03-14.22-2.21-25.75-12.75-44.93-5.62l-12.15,12.96c-.98,1.04.02,4.44,1.13,5.12s4.64,1.69,5.72.92l10.1-7.27c2.05-1.48,8.01-1.54,10.54-.66l40.03,29.75ZM105.28,170.66c1.14.79,4.85-.69,5.53-1.66s1.1-3.99.09-4.71l-17.31-12.54c-.7-.5-1.07-2.79-.62-3.42.34-.47,2.12-.78,2.77-.31l18.24,13.04c1.92,1.37,4.64,1.08,6.06.13,1.26-.84,2.35-4.87.94-5.91l-39.32-29.1c-5.74-4.25-12.85,12.84-24.59,7.72-1.96-.85-4.48-3.72-4.91-5.54s.58-5.2,1.84-6.64l7.57-8.69-15.26,4.02-10.54-3.64-11.62,28.12,10.12,7.45c3.26-3.49,5.8-4.96,9.83-4.52,2.5.27,5.15,4.08,6.45,6.5,2.36-.46,6.54-.8,8.52.32,1.77.99,3.29,4.38,4.22,6.57,1.91.27,5.84.79,7.37,1.89,1.32.95,2.13,4.01,2.57,6.26s7.08,5.96,10.69,4.6l10.65,6.7c1,.63,3.88-.4,4.76-1,.7-.48,1.07-3.53.34-4.06l-12.5-9.06c-.76-.55-2.49-1.84-2.09-2.36l1.67-2.13c.4-.52,2.1.56,2.68.97l15.83,10.97ZM45.66,150.54c-.54-1.06-2.86-2.45-3.99-2.08-2.78.92-7.02,5.8-6.55,8.08.32,1.57,2.78,4.06,4.2,3.85,4.04-.6,8.02-6.52,6.33-9.85ZM50.69,168.79l7.35-7.39c1.2-1.21.69-5.26-.59-6.27-1.35-1.06-4.95-.78-6.12.54l-5.02,5.65c-1,1.13-1.23,4.13-.74,5.52.42,1.19,4.02,3.05,5.11,1.96ZM63.16,175.38l4.59-5.14c1.67-1.87,2.2-4.59,1-6.42s-5.28-2.1-6.78-.21l-6.25,7.84c-.78.98.95,4.14,2.1,4.57s4.43.38,5.34-.64ZM77.37,175.22c-.25-1.27-2.84-3.37-4.06-2.93-2.9,1.04-6.7,5.04-6.83,7.51-.07,1.33,2.44,3.58,3.78,3.51,3.46-.17,7.75-4.88,7.12-8.09ZM88.99,179.32l-6.94-5-2.04,7.21,5.33,1.87c1.29.45,4.08-2.68,3.66-4.08Z"/>
    <path class="cls-1" d="M102.35,88.28c-4.69,1.17-7.64,1.33-10.75-1.7l-8.93,5.14c-2.37,1.36-5.74-1.66-6.21-4.27l-8.66,5.88c-.94.64-4.3.55-4.91-.28-.73-.99-.91-3.48-.36-4.66l7.56-16.16c-1.89.15-4.7.81-5.52,1.73l-17.61,19.82c-.6.67-2.37,1.36-2.9.78-.84-.92-.8-2.69.04-3.79,6.94-9.11,20.54-26.12,27.55-22.86,1.27.59,2.76,4,2.17,5.38l-6.76,15.59,9.32-6.64c.88-.63,3.92-.81,4.04.19l.64,5.56,8.45-5.01c2.58-1.53,5.28-.5,7.26,1.74,8.6-1.24,22.08-3.05,24.04.33,2.44,4.2-10.28,1.19-18.46,3.22Z"/>
    <path class="cls-1" d="M118.75,56.54l-73.94.04-2.26-1.78c-.63-.5,1.48-2.22,2.28-2.44l73.86-.02,2.15,1.67c.6.46-1.37,2.25-2.09,2.53Z"/>
    <path class="cls-1" d="M79.76,35.12l-34.65.11c-.71,0-2.68-.93-2.48-1.48l.98-2.77,36.31-.03,2.17,1.79c.47.39-1.5,2.38-2.32,2.38Z"/>
  </g>
</svg>