<?xml version="1.0" encoding="UTF-8"?>
<svg id="Capa_2" data-name="Capa 2" xmlns="http://www.w3.org/2000/svg" viewBox="0 0 160.83 175.57">
  <defs>
    <style>
      .cls-1 {
        fill: #e08f72;
      }
    </style>
  </defs>
  <g id="Capa_1-2" data-name="Capa 1">
    <path class="cls-1" d="M42.87,160.09l4.54-3.58c.79-4.06,1.18-10.26.25-14.43-1.1-4.93-5.98-7.47-9.97-7.28-4.18.2-8.59,3.2-9.08,8.15-.43,4.35-.02,9.81.96,13.8l4.66,3.35c-1.81,1.67-3.65,2.34-4.95,1.95-1.21-.36-3.77-2.55-3.9-3.99l-1.19-13.44c-.62-7.01,4.97-12.19,11.26-13.87-.7-7.73-.33-13.95,1.65-21.23l-11.22,3.8c-10.94,3.71-18.9,12.82-20.32,24.65l-.9,26.15c-.15,4.39,5.6,6.14,9.48,6.16h94.81c.49.29,2.28,1.43,1.93,1.78l-2.21,2.23-97.31-.02c-6.8-.74-11.65-5.9-11.37-12.71l.84-20.32c.57-13.82,8.47-26.92,21.85-31.12l26.14-8.2c.96-3.54,1.41-8.36,1.06-12.05-5.61-4.94-8.42-12.09-10.42-18.37-9.21-5.35-9.78-14.22-6.93-23.46-1.93-21.28-.53-38.77,21.47-46.64,11.16-2.75,22.95-1.48,33.1,4.15,9.21-.27,15.83,6.36,17.71,15.26,3.61,8.34-.57,18.12-.47,26.65,3.63,9.08,2.86,18.57-6.73,24.01-2.31,6.48-4.9,14-10.68,18.89l.46,10.9,9.55,3.29c7.64,2.63,30.09,8.9,27.69,13.11-.5.88-2.9,1.62-3.75,1.07-6.73-4.34-14.37-7.24-21.49-9.03,3.16,8.92,1.4,16.99-.57,25.7l-.57,2.54c-.16.71,1.69,1.54,2.23,2.03l2.1,1.93c.43.39-.86,2.16-1.43,2.28-2.56.56-6.91-4.37-10.66.26-1.49,1.83-1.43,5.22-.02,7.17,3.47,4.8,8.55-1.01,11.33.9.61.42-.04,2.81-.68,3.3-2.83,2.18-8.39,2.99-11.83.34-2.79-2.16-4.65-6.11-3.96-10.56.55-3.58,4.7-6.06,8.17-7.53,5.2-12.23,5.76-30.98-4.36-30.9-5.44,7.33-11.85,16.03-20.88,18.06-8.96-2.59-15.42-10.82-20.75-18.26-8.31.88-9.63,13.24-7.64,23.67,5.92,1.46,11.04,4.85,12.1,11.2,1.21,7.22.77,17.48-4.15,20.15-.94.51-2.79,0-4.95-1.87ZM83.83,31.8c7.36.9,13.09,8.46,15.08,16.52,3.15-8.94,3.62-18.02,2.15-26.46-2.37-8.18-8.38-13.45-16.73-12.3-6.08-4.04-13.02-5.43-20.25-5.14-11.1-.38-20.93,5.45-25.26,15.91-3.57,8.63-4.1,19.23-.45,27.74,2.01-6.32,5.06-14.01,11.49-13.15,11.81,1.58,22.8,1.81,33.98-3.12ZM50.88,85.04c9.67,10.9,24.29,11.32,34.15,1.28,4.93-5.03,7.43-11.72,9.27-18.54,3.3-1.41,6.47-3.72,7.22-6.48,1.01-3.74,1.02-7.48-.87-9.88l-3.38,2.24c-4.72,3.14-.31-14.03-13.47-17.39-9.66,3.34-19.72,5.59-30.72,2.89-2.82-.69-7.15.14-8,3.28l-3.11,11.51-5.67-1.61c-1.5,1.89-1.48,6.08-.34,9.69.73,2.29,4,4.38,6.83,5.75,1.8,6.08,3.78,12.4,8.08,17.26ZM84.92,105.7c-1.58-4.96-2.03-8.12-2.49-12.48-8.64,6.3-19.93,5.72-28.03.14l-2.42,13.1c4.52,5.99,10.21,11.36,16.69,14.97,6.76-4.1,12.33-9.65,16.24-15.73Z"/>
    <path class="cls-1" d="M131.09,123.02c15.04-2.01,27.78,8.96,29.52,22.6,1.87,14.71-8.07,27.53-22.33,29.66-14.25,2.13-27.48-7.77-29.76-21.64s7.07-28.55,22.58-30.62ZM132.03,127.09c-12.94,1.43-21.34,13.49-19.48,25.39,1.84,11.77,12.64,20.46,24.76,18.8,11.85-1.61,20.85-12.38,19.3-24.73-1.43-11.43-11.73-20.88-24.58-19.46Z"/>
    <path class="cls-1" d="M136.49,159.11c-.02.94-1.18,2.87-1.8,3.22s-2.16-1.57-2.19-2.31l-.35-8.47-8.54-.28c-.71-.02-2.79-1.79-2.34-2.33s2.13-1.59,2.93-1.63l8.05-.48.2-8.18c.02-.72.82-2.16,1.32-2.61.68-.6,2.79,1.5,2.79,2.56v8.14s9.04.28,9.04.28c.62.02,1.89,1.46,2.03,2.06.19.81-1.75,2.32-2.62,2.31l-8.38-.07-.14,7.8Z"/>
  </g>
</svg>