<?xml version="1.0" encoding="UTF-8"?>
<svg id="Capa_2" data-name="Capa 2" xmlns="http://www.w3.org/2000/svg" viewBox="0 0 161.47 167.46">
  <defs>
    <style>
      .cls-1 {
        fill: #e08f72;
      }
    </style>
  </defs>
  <g id="Capa_1-2" data-name="Capa 1">
    <path class="cls-1" d="M148.92,167.32l-133.36.14c-6.95,0-15.47-3.24-15.47-11.58L0,48.99c0-6.91,5.72-12.4,12.51-12.41l49.05-.06.36-19.9C62.1,6.8,71.54.52,80.39.03s19.85,5.42,20.07,15.58l.44,20.94,47.71-.04c6.63,0,12.83,5.04,12.83,12.2l.03,105.78c0,6.62-5.14,12.84-12.54,12.84ZM96.76,48.43l-.21-30.94c-.05-8.11-8.29-13.21-15.51-13.19s-15,5.47-15,13.44l-.02,30.76,30.75-.07ZM148.54,40.7l-47.99.17c1.12,4.1.43,11.15-3.51,11.17l-31.26.14c-4.3.02-4.98-6.97-3.84-11.39l-49.4-.05c-3.92,0-8.43,3.44-8.44,7.84l-.08,104.92c0,5.21,3.49,9.63,8.99,9.62l136.05-.04c4.45,0,8.04-3.56,8.05-7.98l.05-106.3c0-4.88-4.03-8.12-8.62-8.1Z"/>
    <path class="cls-1" d="M78.15,138.81c0,.94-2.41,3.08-3.16,3.39H20c-2.42-2.5-2.23-5.21-2.48-8.63-.84-11.46,3.44-22.22,14.84-26.36,10.1-3.67,22.05-3.81,32.04.25,8.58,3.48,13.7,11.13,13.73,20.2l.03,11.15ZM74.25,138.1l-.21-11.45c-.13-6.93-5.44-13.27-11.92-15.61-16.72-6.02-39.57-.98-39.9,15.46l-.23,11.52,52.26.07Z"/>
    <path class="cls-1" d="M130.42,153.05h-17.25s-.54-11.53-.54-11.53l-11.53-.71c-.7-6.25-.77-10.49-.18-17.08l11.7-1.08.56-11.55,17.37.11.43,11.44,10.03.82c3.14.26,3.67,15.04.4,16.9-2.33,1.33-7.03.92-10.22.84l-.77,11.82ZM126.72,149.46l.35-12.02,12.03-.3-.03-10.11-11.98-.11-.27-12.17-10.01-.19-.14,12.28-12.05.34.06,10.02,11.99.13.31,12.28,9.75-.15Z"/>
    <path class="cls-1" d="M44.73,99.89c-10.22-1.98-15.69-11.48-14.03-20.68,1.62-8.99,10.01-16.05,19.79-14.57s16.22,10.7,14.85,20.22c-1.33,9.26-10.12,17.07-20.61,15.04ZM46.58,95.9c7.89,1.01,14.01-5.36,14.61-12.15.63-7.23-4.11-13.99-11.93-14.89-7.49-.86-14.09,5.26-14.65,12.24s4.14,13.8,11.97,14.8Z"/>
    <path class="cls-1" d="M139.6,78l-40.73.13-1.98-1.52c-.52-.4.66-1.79,1.4-2.66l42.5-.02,1.2,2.2c.34.63-1.66,1.68-2.39,1.87Z"/>
    <path class="cls-1" d="M140.5,97.33h-41.67s-1.96-1.76-1.96-1.76c-.52-.46.85-1.73,1.74-2.48l40.96-.03,2.51,1.43c.59.34-.49,1.6-1.59,2.84Z"/>
    <path class="cls-1" d="M78.62,13.02c4.72-1.68,9.43,1.44,10.69,5.26,1.53,4.64-.53,9.47-5.43,10.98-4.1,1.27-8.42-.37-10.4-5.09-1.54-3.66-.24-9.23,5.14-11.15ZM80.98,16.77c-2.57.57-4.46,3.36-4.08,5.18.46,2.2,3.28,4.04,5.14,3.71,2.36-.42,3.92-3.27,3.56-5.39-.26-1.55-2.92-3.86-4.62-3.49Z"/>
  </g>
</svg>