<?xml version="1.0" encoding="UTF-8"?>
<svg id="Capa_2" data-name="Capa 2" xmlns="http://www.w3.org/2000/svg" viewBox="0 0 139.35 169">
  <defs>
    <style>
      .cls-1 {
        fill: #e08f72;
      }
    </style>
  </defs>
  <g id="Capa_1-2" data-name="Capa 1">
    <path class="cls-1" d="M87.87,125.39l-36.5.07-5.75,20.73c6.76,2.69,5.76,16.46,3.47,19.9-1.03,1.54-4.44,2.88-6.69,2.88l-33.25.03c-2.28,0-6-.79-7.14-2.25-1.53-1.95-1.77-5.86-1.94-8.5-.41-6.31,1.36-11.4,8.56-12.35L46.73,5.82C47.58,2.69,51.17-.01,54.14,0l32.2.13c3.73.02,5.98,4.83,6.87,8.09l37.4,137.47c6.8,1.58,9.14,5.79,8.68,12.69-.21,3.13-.24,10.28-5.51,10.31l-37.32.23c-6.46.04-8.08-5.46-8.16-10.74s.04-9.57,5.42-11.88l-5.85-20.92ZM91.1,121.3l7.36,27.24-5.48,2.85c-.25,4.41-.17,8.49.81,13.5l40.17-.08c1.02-4.29,1.45-10.44-.34-13.55-3-1.29-6.41-2.16-7.26-5.31L87.89,4.38l-33.68-.34c-1.53-.02-3.41,2.58-3.88,4.32L12.41,147.98l-7.02,3.61c-1.42,3.39-1.3,8.54-.36,13.3l40.35-.07c1.23-4.53,1.79-10.54-.18-13.3-.78-1.05-4.54-3.03-4.2-4.26l7.26-25.93,42.83-.04Z"/>
    <path class="cls-1" d="M83.82,94.95l-28.41.17,12.04-47.87,1.46-2.02c.43-.59,2.25,1.02,2.62,1.57l12.29,48.15ZM78.63,90.97l-9.05-34.28-8.91,34.44,17.96-.16Z"/>
  </g>
</svg>