<?xml version="1.0" encoding="UTF-8"?>
<svg id="Capa_2" data-name="Capa 2" xmlns="http://www.w3.org/2000/svg" viewBox="0 0 140.45 171.26">
  <defs>
    <style>
      .cls-1 {
        fill: #e08f72;
      }
    </style>
  </defs>
  <g id="Capa_1-2" data-name="Capa 1">
    <path class="cls-1" d="M136.55,138.66c-4.81,6.15-4.97,17.94-.12,23.89,1.26,1.55,3.94,3.18,4.02,4.63s-2.48,4.08-4.31,4.08l-116.5-.15C9.27,171.1,0,162.81,0,152.45L.08,20.22C.09,9.16,10.29.31,20.72.26l56.86-.26,50.9.11c6.21.01,11.85,3.97,11.86,10.77l.11,118.75c0,4.13-1.16,5.52-3.9,9.03ZM21.48,133.67l-.08-129.23c-9.15.13-17.21,6.95-17.23,15.87l-.15,120.92c5.32-5.49,10.65-6.9,17.46-7.55ZM136.35,12.4c.12-4.94-2.57-7.62-6.87-8.06l-103.98-.03.06,129.84,110.7-.08.1-121.68ZM131.39,138.11l-114.03.17c-7.74.01-13.13,7.61-13.1,13.96.03,5.73,5.14,14.34,12.71,14.35l116.85.19c-6.42-8.59-5.87-19.67-2.43-28.67Z"/>
    <path class="cls-1" d="M109.12,74.15l-55.55-.08c-4.37,0-7.37-3.02-7.4-7.31l-.15-23.21c-.03-4.57,2.8-8.46,7.77-8.47l53.8-.06c3.99,0,7.98,2.13,7.99,6.77l.06,25.92c0,3.3-2.81,6.03-6.52,6.43ZM111.65,69.71l-.14-30.36-57.7-.18c-1.82,0-3.64,2.5-3.62,4.39l.28,25.11c1.56.87,4.14,1.3,6.05,1.29l55.13-.24Z"/>
    <path class="cls-1" d="M121.45,154.7H23.69s-2.24-1.61-2.24-1.61c-.62-.45,1.43-2.17,2.22-2.41l97.79-.02,2.19,1.66c.61.46-1.44,2.14-2.2,2.38Z"/>
  </g>
</svg>