<?xml version="1.0" encoding="UTF-8"?>
<svg id="Capa_2" data-name="Capa 2" xmlns="http://www.w3.org/2000/svg" viewBox="0 0 149.11 175.67">
  <defs>
    <style>
      .cls-1 {
        fill: #e08f72;
      }
    </style>
  </defs>
  <g id="Capa_1-2" data-name="Capa 1">
    <path class="cls-1" d="M145.07,141.5c-4.85,5.75-5.96,21.18,1.5,26.81,1.14.86,2.36,2.89,2.25,4.04s-2.45,3.31-3.7,3.31l-126.16-.04C9.03,175.62,0,166.99,0,156.75V18.4C0,9.83,8.16.24,16.78.22L137.68,0c6.22-.01,11.38,4.7,11.39,11.16l.04,122.88c0,3.18-2.21,5.29-4.04,7.46ZM21.85,136.9V4.21C12.22,3.22,5.17,9.92,3.84,19.49v125.14c5.2-5.03,10.72-7.22,18.01-7.74ZM56.82,42.39l.07-38.32-30.68.18.12,38.25,15.3-9.56,15.19,9.45ZM26.33,137.22l118.65-.08.06-124.96c0-5.09-3.21-8.55-8.35-8.04H61.01s-.04,38.04-.04,38.04c0,1.09-1.19,3.37-2.12,3.93s-3.86.29-4.84-.35l-12.3-7.99-15.49,9.82.1,89.62ZM139.71,141.28l-121.45.17c-8.25.01-14.3,8.43-14.02,15.07.32,7.29,6.19,14.75,14.55,14.75l124-.03c-7.33-7.68-6.42-19.41-3.09-29.95Z"/>
    <path class="cls-1" d="M114.74,101.54c-12.38,17.64-36.42,18.74-50.71,4.51s-12.51-39.54,5.3-51.42c13.33-8.89,30.96-6.62,41.78,4.57,10.83,11.2,13.14,28.78,3.62,42.34ZM115.46,90.26c3.17-11.88-1.73-24.31-10.57-30.87-9.4-6.97-21.79-8.16-31.92-2.05-11.79,7.11-17.24,20.45-13.22,33.77,3.54,11.76,14.87,20.68,28.22,20.52,12.19-.15,23.94-8.05,27.49-21.37Z"/>
    <path class="cls-1" d="M128.99,158.67l-104.87-.03c-.7-.06-3.22-1.59-2.63-2.11l2.6-2.3,105.53-.06,2.66,2.39c.6.54-2.12,2.13-3.29,2.1Z"/>
    <path class="cls-1" d="M103.38,90.62l-30.46.13-2.38-2.12c-.57-.5,1.73-2.47,2.53-2.47l29.23.02c.73,0,2.66,1.02,2.42,1.53l-1.34,2.91Z"/>
    <path class="cls-1" d="M103.73,79.58l-31.77.05-2.16-2.28c-.62-.65,2.04-2.19,2.81-2.14h30.85s1.9,1.82,1.9,1.82c.48.46-.75,1.75-1.63,2.55Z"/>
  </g>
</svg>