<?xml version="1.0" encoding="UTF-8"?>
<svg id="Capa_2" data-name="Capa 2" xmlns="http://www.w3.org/2000/svg" viewBox="0 0 127.03 163.5">
  <defs>
    <style>
      .cls-1 {
        fill: #e08f72;
      }
    </style>
  </defs>
  <g id="Capa_1-2" data-name="Capa 1">
    <path class="cls-1" d="M107.37,163.27l-84.63.24c-8.84.02-15.98-5.17-19.75-11.74-4.54-7.92-3.57-16.07.58-23.98L37.64,62.91l-.13-42.35c-5.64-1.59-8.48-5.14-8.2-10.81C29.56,4.62,32.93,0,38.7,0l49.72.06c5.76,0,9.18,4.66,9.41,9.66.27,5.78-2.73,9.43-8.41,10.78l.06,42.39,35.05,66.96c3.35,7.04,3.42,14.12-.23,21.88-3.09,4.46-8.6,11.52-16.91,11.54ZM95.96,96.75l5.15-2.2c-4.22-10.49-12.08-19.37-14.82-30.03-3.25-14.44.46-29.51-1.53-43.93l-5.89-.17c-.94-.03-2.83-1.42-2.54-2.23s2.16-1.67,3.15-1.73l10.91-.6c1.82-.1,3.29-4.07,3.3-5.65s-1.35-4.55-2.95-5.93l-53.71.08c-2.09,0-3.71,4.24-3.69,6s1.62,5.72,3.67,5.78l11.61.34c.81.02,2.18,1.19,2.46,1.79.18.4-.99,1.98-1.43,1.99l-7.77.21-.29,44.03-13.93,26.29c10.39,7.22,20.48-4.09,39.84,6.11,9.08,4.78,19.07,5.05,28.44-.17ZM103.03,98.01c-14.39,7.54-24.4,9.16-37.21,2.66-18.36-9.33-27.75,1.54-40.26-5.77l-18.05,34.91c-3.91,5.86-4.11,12.6-1.15,19.57,2.57,3.89,7.49,9.83,14.25,9.83l85.96-.04c6.14,0,11.01-4.99,13.38-8.76,3.36-5.35,4.2-11.88,1.38-17.29l-18.29-35.1Z"/>
    <path class="cls-1" d="M43.61,111.39c4.69-1.51,8.75,1.43,9.65,5.22,1.01,4.26-.88,8.74-5.43,9.98-3.62.98-7.73-1.02-9.43-4.97-1.54-3.58.31-8.65,5.21-10.23ZM45.01,115.07c-2.32.75-3.6,3.35-2.89,4.67,1,1.85,3.45,3.46,4.83,2.9,1.86-.76,3.12-3.55,2.58-5.1-.43-1.23-3.25-2.87-4.51-2.46Z"/>
    <path class="cls-1" d="M59.91,137.16c3.21-.97,6.58.9,7.43,3.45,1.15,3.43-.12,7.2-3.4,8.18-3.14.94-6.87-.35-8.03-3.68-1-2.84.49-6.89,4-7.95Z"/>
    <path class="cls-1" d="M78.94,124.35c2.27-1.23,5.81-.44,6.98,1.58s.62,5.55-1.57,7.15c-1.84,1.34-5.42.51-6.98-1.52-1.42-1.85-.85-5.9,1.56-7.21Z"/>
    <path class="cls-1" d="M66.95,67.23c3.87-1.8,8.03-.11,9.85,3.77,1.54,3.29.23,7.61-3.85,9.75-2.94,1.54-7.93.03-9.63-3.16-1.97-3.69-.28-8.54,3.63-10.36ZM68.91,70.91c-1.86.97-2.68,3.72-1.76,4.7,1.06,1.14,2.89,2.4,3.79,1.69,1.19-.93,2.21-3.04,2.13-4.19s-3.12-2.75-4.16-2.21Z"/>
  </g>
</svg>