<?xml version="1.0" encoding="UTF-8"?>
<svg id="Capa_2" data-name="Capa 2" xmlns="http://www.w3.org/2000/svg" viewBox="0 0 162.53 129.36">
  <defs>
    <style>
      .cls-1 {
        fill: #7889de;
      }
    </style>
  </defs>
  <g id="Capa_1-2" data-name="Capa 1">
    <path class="cls-1" d="M115.34,129.26l-67.07.1c-5.11,0-10.49-3.46-10.59-9.01-.21-11.58-.67-23.02.27-34.46,1.55-18.95,15.75-33.26,33.74-36.71-12.53-5.93-18.03-18.22-14.69-30.41C60.12,7.34,70.88-1.14,83.63.13c11.7,1.17,20.71,10.34,22.42,20.77,2.04,12.41-4.24,22.85-15.65,28.39,19.11,3.48,34,18.31,34.09,37.34l.16,33.91c.02,4.32-4.26,8.72-9.3,8.72ZM88.53,44.61c11.95-4.64,16.08-18.11,10.96-28.16-5.45-10.71-18.4-15.41-28.79-8.84-9.52,6.02-12.44,17.43-7.79,27,4.37,8.97,15.18,14.06,25.62,10.01ZM114.28,124.85c3.79,0,6.11-3.45,6.07-6.47l-.36-30.58c-.24-20.33-17.92-34.51-37.87-35.02-20.14-.51-38.21,13.25-39.39,33.86-.63,11.06-.25,21.65-.29,32.79-.01,3.27,2.71,5.46,5.82,5.46l66.02-.05Z"/>
    <path class="cls-1" d="M132.99,101.35l24.26-.44c.3-18.5,3.64-32.23-12.09-41.39-7-4.08-17.83-3.58-24.56-1.44-.88.28-3.17-1.91-2.55-2.37l3.95-2.9c-10.14-6.82-11.95-20.1-4.95-28.73,7.59-9.35,21.25-9.5,29.04-.69s6.05,22.68-4.89,29.72c11.98,3.49,20.69,12.85,20.94,25.1l.41,20.29c-1.18,4.7-4.57,7.59-9.81,7.52l-18.38-.26c-.63,0-2.52-1.16-2.98-1.5-.61-.45.88-2.35,1.62-2.92ZM131.68,50.8c9.61.07,15.26-8.64,14.24-16.61-1-7.74-8.44-14.18-16.7-12.57-7.62,1.49-12.02,8.45-11.46,15.5.53,6.66,5.55,13.61,13.92,13.67Z"/>
    <path class="cls-1" d="M28.68,101.33c.95.02,3.55,1.68,3.1,2.23s-2.28,2.27-3,2.28l-21.38.05c-2.94,0-6.97-3.45-7.05-5.95-.68-22.63-2.57-38.53,20.74-46.89-10.71-6.57-12.76-20.11-5.61-29.05,7.33-9.17,21.27-9.57,29.22-.69,7.83,8.75,6.16,22.48-4.6,29.49l3.95,2.24c.76.43-.44,3.69-1.37,3.44-7.15-1.97-16.47-3.37-23.62-.03-16.85,7.87-15.37,23.69-14.02,42.41l23.63.46ZM37.18,49.01c6.6-3.9,8.92-11.1,6.87-17.37-1.86-5.68-7.45-10.52-14.2-10.21-9.62.44-15.64,9.8-13.42,18.23s12.28,14.35,20.75,9.35Z"/>
    <path class="cls-1" d="M83.65,112.87c-3.67,2.28-8.25-2.02-10.55-3.99-5.1-4.37-10.17-8.38-12.98-14.18s-.88-12.92,3.69-16.8,11.76-4.17,17.46-.04c5.78-4.09,12.68-4.2,17.74.18s6.71,12.27,2.37,18.39c-4.41,6.2-10.61,12-17.74,16.43ZM97.79,93.41c3.27-5.08.09-11.19-3.99-13.31-4-2.09-8.34-.54-11.82,3.83l-8.02-4.61c-3.39-1.2-8.09,2.23-9.36,4.8-4.62,9.36,6.87,16.74,16.48,25.4,6.41-4.82,12.52-9.58,16.71-16.1Z"/>
  </g>
</svg>