<?xml version="1.0" encoding="UTF-8"?>
<svg id="Capa_2" data-name="Capa 2" xmlns="http://www.w3.org/2000/svg" viewBox="0 0 111.23 140.24">
  <defs>
    <style>
      .cls-1 {
        fill: #7889de;
      }
    </style>
  </defs>
  <g id="Capa_1-2" data-name="Capa 1">
    <path class="cls-1" d="M59.54,118.69c-2.29,2.41-5.77,2.24-7.85.09-16-16.58-34.86-41.82-39.68-63.51C5.76,27.1,25.56,1.58,53.17.07c28.44-1.55,51.14,22.98,46.66,51.89-3.47,22.41-23.67,49.25-40.29,66.73ZM94.22,56.99c4.32-16.47-.58-33.36-14.06-44.04-14.55-11.53-34.88-11.24-49.18-.12-13.87,10.8-19.38,29.7-12.78,47.14,8.06,21.28,21.53,39.86,37.6,56.17,16.65-17.74,31.18-37.74,38.43-59.15Z"/>
    <path class="cls-1" d="M106.68,119.86c1.43-6.3-12.16-11.04-21.49-13.76-.78-.23-2.12-1.79-2.45-2.47-1.96-4.06,27.77,1.7,28.48,15.32.43,8.26-10.4,13.78-20.36,16.53-23.54,6.5-48.23,6.27-71.8-.27-5.81-1.61-11.48-4.47-15.59-8.31-5.05-4.72-4.46-11.84.99-16.23,5.56-4.48,15.46-8,22.15-8.75.8-.09,2.52,2.47,1.96,2.84-5.78,3.82-22.84,5.06-23.76,14.21-.81,8.03,19.32,13.58,31.64,15.14,15.51,1.97,31.03,1.7,46.38-1.27,9.39-1.82,22.35-6.4,23.85-12.99Z"/>
    <path class="cls-1" d="M49.82,26.42c11.62-3.21,22.49,3.29,25.36,13.79,2.93,10.72-2.96,21.84-13.6,25.03s-21.65-2.5-25.01-12.53c-3.62-10.82,1.41-23.02,13.25-26.3ZM51.12,30.83c-9.23,2.95-13.12,12.4-10.02,20.52,2.87,7.53,11.24,11.64,19.12,9.31,8.27-2.45,12.72-11.16,10.4-19.15-2.34-8.06-10.79-13.47-19.51-10.68Z"/>
  </g>
</svg>