<?xml version="1.0" encoding="UTF-8"?>
<svg id="Capa_2" data-name="Capa 2" xmlns="http://www.w3.org/2000/svg" viewBox="0 0 134.6 135.34">
  <defs>
    <style>
      .cls-1 {
        fill: #7889de;
      }
    </style>
  </defs>
  <g id="Capa_1-2" data-name="Capa 1">
    <path class="cls-1" d="M92.2,130.5c-22.78,8.88-47.36,5.37-66.14-9.12C8.18,107.58-1.53,85.69.2,61.97,2.38,31.9,24.2,6.82,53.91,1.28c21.42-3.99,42.39,1.38,58.34,15.71,15.46,13.89,23.83,34.34,22.14,56.14-1.98,25.51-17.73,47.84-42.19,57.37ZM85.24,80.13c-.08-1.71-4.77-3.78-6.43-3.98-4.68-.56-7.68-4.75-10.04-8.33-4.13-6.27-12.72-6.03-19.05-6.19-4.88-.12-6.48-6.39-9.38-8.93-2.18-1.92-6.31-3.19-6.87-6.27-.68-3.68,1.72-8.24,4-10,3.26-2.52,7.46-2.96,11.55-2.04,6.15,1.39,4.04-4.38,13.58-10.22,3.18-1.95,3.98-4.19,3.57-8.09-.38-3.65,2.94-7.31,5.93-11.29-19.76-1.86-39.06,6.28-51.62,20.85,6.69,12.7-.39,22.13,12.34,27.08,4.45,1.73,8.35,5.03,12.11,8.39,2.64,2.36,4.83,5.66,2.85,9.28-3.21,5.86-1.46,12.6,4.06,16.48,13.32,9.35-1.06,26.7,14.65,35.1-.85-8.15.38-14.3,6.73-18.53.8-4.98,3.58-8.32,8.12-10.6,1.92-3.25,4.11-8.15,3.9-12.72ZM48.67,90.07c-7.73-5.6-9.24-15.19-4.24-23.51l-10.22-8.72c-20.31-5.97-10.77-18.27-17.4-27.89-9.42,13.29-13.27,28.35-11.8,43.8,2.63,27.55,22.56,49.55,48.19,55.22,27.27,6.03,54.55-5.38,68.46-30.15-12.87-12.49-4.55-25.56-12.73-32.81-3.97-1.33-9.74-.98-12.81-3.7-8.16-7.22-6.5-19.45,1.36-26.12l6.84-5.81,4.26-9.95c-8.32-7.99-19.04-13.12-30.97-15.02l-7.02,9.52c2.96,11.14-6.81,10.65-12.48,19.8-5.09,8.22-11.72,1.43-17.55,5.05-1.57.98-2.6,4.99-1.96,6.62,11.45,3.38,5.02,11.72,15.64,10.78,5.92-.52,14.69,2.78,18.29,7.59,3.01,4.03,4,6.54,9.54,7.46,2.34.39,6.32,2.98,7.22,5.04,2.58,5.94-1.03,17.56-8.91,21.51l-5.06,8.59c-2.52,4.27-5.08,6.16-4.22,11.62.41,2.58-.95,5.66-3.42,6.75-1.74.78-5.45-.07-7.29-1.65-12.36-10.61-1.02-26.29-11.71-34.03ZM112.04,61.72c10.01,10.77,1.54,23.81,12.1,32.3,10.87-24.15,5.84-51.07-11.41-70.01-4.97,1.67-.77,8.56-10.17,13.98-3.84,2.21-6.37,6.13-7.04,10s.63,9.16,4.81,11.29l11.71,2.45Z"/>
  </g>
</svg>