<?xml version="1.0" encoding="UTF-8"?>
<svg id="Capa_2" data-name="Capa 2" xmlns="http://www.w3.org/2000/svg" viewBox="0 0 129.27 121.29">
  <defs>
    <style>
      .cls-1 {
        fill: #7889de;
      }
    </style>
  </defs>
  <g id="Capa_1-2" data-name="Capa 1">
    <path class="cls-1" d="M48.37,121.06l-25.72.17c-9.21.06-7.31-9.33-8.47-17.22C6.52,105.63-.08,101.31,0,94.02l.29-25.76c1.45-13.66,12.66-23.11,26.36-26.54-9.71-5.4-14.62-14.55-12.36-25.08C16.33,7.09,24.97.06,35.13,0c9.92-.05,18.75,6.98,20.79,16.73,2.12,10.11-2.45,19.68-12.16,24.73,15.12,5.16,25.95,14.6,25.84,29.78l-.26,34.66c-.05,6.99-8.53,10.62-13.96,8.09-1.22,2.18-4.43,7.05-7.02,7.07ZM28.8,37.34c10.9,4.66,21.47-3.35,22.84-13.83,1.35-10.27-7.01-19.72-18.17-18.78-7.83.66-13.74,7.18-14.77,14.22s2.44,15.12,10.09,18.39ZM46.28,116.8c1.5-.01,3.79-2.64,3.75-3.93l-.02-34.85c.65-.64,3.23-2.03,3.56-1.2.24.62.69,2.41.71,3.35l.53,28.18c2.09,1.66,5.85,2.15,7.53,1.05,1.96-1.3,3.05-3.98,3.03-6.41l-.31-31.78c-.11-11.51-9.11-20.7-19.52-23.96-9.52-2.98-19.26-2.08-27.76,2.77s-13.17,13.07-13.24,22.53l-.15,20.45c-.01,2.03,1.72,5.16,3.27,5.94,1.83.91,5.87.78,7.15-.63l.21-20.24c0-.86,3.05-1.77,3.39-1.02.26.57.87,2.34.87,3.2l.07,32.45c0,2,2.44,4.25,4.17,4.24l22.79-.15Z"/>
    <path class="cls-1" d="M85.5,116.69l20.02.21c2,.02,4.24-2.21,4.41-4.07l-.11-33.98,1.74-2.15c.5-.63,2.5,1.53,2.52,2.41l.42,25.23c1.58,1.27,4.81,2.19,6.36,1.9s4.09-2.89,4.08-4.49l-.09-30.39c-.02-7.06-3.81-12.78-8.65-17.54-12.04-10.74-29.73-11.22-42.74-1.23l-2.94-.16c-4.15-.22,2.11-7.38,14.73-10.92-9.27-4.99-13.95-14.11-12.17-23.87S83.17.49,92.97.07c10.45-.45,19.33,6.2,21.67,15.7,2.6,10.5-1.39,20.06-11.94,25.85,13.4,3.61,26.14,12.85,26.28,27.51l.3,33.85c.05,5.14-6.72,9.74-14.67,7.82-.32,2.02-.97,5.79-1.89,7.32-1,1.68-4.9,3.17-7.07,3.17l-19.87-.04c-4.73,0-8.19-3.37-8.2-8.26l-.1-26.87c0-1.05,1.54-2.92,2.34-3.05s2.52,2.01,2.52,2.97v26.61c0,1.08,1.93,4.03,3.18,4.04ZM100.25,37.34c8.64-3.73,12.2-12.61,9.89-20.31-2.37-7.92-10.05-13.67-18.73-12.08-10.61,1.94-15.99,11.94-13.31,21.19s12.41,15.4,22.15,11.2Z"/>
  </g>
</svg>