<?xml version="1.0" encoding="UTF-8"?>
<svg id="Capa_2" data-name="Capa 2" xmlns="http://www.w3.org/2000/svg" viewBox="0 0 118.23 139.66">
  <defs>
    <style>
      .cls-1 {
        fill: #7889de;
      }
    </style>
  </defs>
  <g id="Capa_1-2" data-name="Capa 1">
    <path class="cls-1" d="M101.83,118.01c-.6,15.16-10.62,10.24-18.34,17.57-3.38,3.21-7.73,4.59-12.29,3.92-3.85-.57-7.39-3.15-9.67-7.48-3.7-7.03-15.45,2.21-21.2-15.8-4.36-2.46-12.18-4.48-11.09-12.77.56-4.25-2.76-13.36-7.31-13.76-7.45-.66-11.58-1.9-15.06-8.83l-5.32-10.62c-6.62-13.22,10.3-12.63,8.84-25.01,2.44-7.55,1.82-14.13-2.26-21.41.7-6.97,2.9-17.27,9.96-20.99S34.2,0,41.9.24c6.46.2,8.2,8.95,11.79,9.77,3.2.73,7.63-5.45,15.28-2.98,10.85,3.5,19.78,9.4,29.07,15.66,4.84,3.27,7.64,7.47,7.08,13.73l-1.35,15.24c-.41,4.57,1.77,8.88,5.82,10.62,8.35,3.58,10.33,11.58,7.33,19.77-1.76,4.81-3.97,9.51-8.89,11.58-4.54,1.91-5.44,5.59-5.63,10.23l-.56,14.16ZM80.54,132.09c7.61-7.41,17.39-3.55,16.75-13.07-.76-11.34-.31-25.53,8.07-29.12,6.99-2.99,9.43-14.62,7.85-18.25-1.96-4.51-13.8-7.91-13.55-14.51l.9-23.07c.16-4.2-4.32-7.47-7.7-9.38l-22.34-12.62c-4-2.26-8.57-.91-12.24,1.32-4.47,2.72-9.67.16-12.02-4.33-1.36-2.59-4.5-4.92-7.27-4.81l-13.57.54c-7.76.31-12.09,9.63-12.34,18.32l3.59,10.97-1.68,14.36c-1.45,12.41-13.46,12.17-9.86,18.99l8.04,15.22c1.16,2.19,7.42,1.65,9.72,2.39,6.68,2.18,10.86,10.8,10.72,17.51-.22,10.72,11.95,5.2,13.09,16.54.26,2.61,4.29,5.04,6.8,4.91,6.6-.35,10.03,2.82,13.06,7.63s9.84,4.51,13.98.48Z"/>
    <path class="cls-1" d="M80.58,65.38c-3.9,9.95-17.02,28.57-20.69,28.14-4.03-.47-16.75-18.98-20.51-28.16s-.23-20.02,6.6-25.6c7.95-6.49,19.27-6.53,27.36-.59s11.07,16.46,7.24,26.21ZM60.09,88.18c7.32-8.62,12.3-15.53,16.35-23.93,2.51-8.1.49-16.25-5.27-20.94-6.56-5.34-15.28-5.16-21.47-.59-15.58,11.51-2.47,31.19,10.38,45.45Z"/>
    <path class="cls-1" d="M56.16,49.11c5.14-2.27,10.15.17,12.16,4.83,1.67,3.86-.32,8.84-4.83,10.96-3.99,1.87-8.96.35-11.5-4.25-1.85-3.36-.74-9.37,4.17-11.53ZM58.45,52.97c-2.47,1.33-3.05,4.87-1.95,6.19.96,1.16,3.77,2.23,5.16,1.67,1.49-.6,2.7-3.9,2.28-5.35s-3.83-3.41-5.49-2.52Z"/>
  </g>
</svg>