<?xml version="1.0" encoding="UTF-8"?>
<svg id="Capa_2" data-name="Capa 2" xmlns="http://www.w3.org/2000/svg" viewBox="0 0 129.05 142.11">
  <defs>
    <style>
      .cls-1 {
        fill: #7889de;
      }
    </style>
  </defs>
  <g id="Capa_1-2" data-name="Capa 1">
    <path class="cls-1" d="M44.29,142.11c-5.42,0-8.7-3.16-8.64-8.71l.19-17.6c.04-4.06,1.92-8.74,3.5-13.21-7.43-5.54-18.33-6.6-26.16-1.61-6.12,3.9-9.23,10.09-9.08,17.08l.32,15.06,23.52.11c.81,0,2.62,1.09,2.69,1.77.09.9-1.73,2.48-2.82,2.49l-20.54.06C3.78,137.56-.01,134.76,0,131.07l.05-16.07c.03-9.9,7.22-17.29,16.17-20.28-8.66-6.77-10.07-18.02-3.72-25.53,6.39-7.57,18.8-7.88,25.3-.63s5.91,19.1-2.88,25.73l7,4.37,12.42-7.42c-8.68-5.63-10.42-18.17-3.95-26.34,6.67-8.43,19.61-9.27,26.95-1.16,7.19,7.95,6.84,20.61-3.18,27.3l12.14,7.93,7.77-4.68c-8.74-6.65-9.48-18.04-2.85-25.53,6.25-7.07,18.01-7.37,24.53-.66,7.21,7.43,6.68,19.53-2.4,26.28,16.95,9.22,15.45,17.17,15.7,33.72.03,2.1-.72,5.61-1.77,7.05s-4.46,2.55-6.61,2.53l-19.46-.17c-.74,0-2.54-.52-3.13-.7-.77-.23.46-3.34,1.42-3.35l24.18-.38c2.95-16.45,1.19-31.21-14.5-34.83-7.26-1.67-14.67.22-19.97,4.74,1.88,4.01,3.85,8.74,3.86,12.96l.05,19.5c.01,4.01-3.74,6.67-7.28,6.67l-41.53.02ZM75.08,84.15c3.38-5.27,3.29-11.89.19-16.03-3.43-4.59-9.46-6.94-14.97-4.93-6.02,2.2-9.4,7.51-9.35,13.09.05,6.02,3.9,10.96,9.04,12.78,5.46,1.93,11.65.44,15.08-4.91ZM30.53,91.91c7.2-3.66,9.13-12.47,5.45-18.29-3.92-6.2-12.61-7.96-18.49-3.05-5.17,4.32-5.83,11.31-2.46,16.45,3.16,4.81,9.44,7.97,15.5,4.89ZM97.88,91.49c6.15,3.91,13.67.8,16.92-5.28,3.52-6.59.77-14.21-5.58-17.19-6.13-2.88-13.21-.75-16.57,5.4-3.04,5.55-1.31,12.92,5.23,17.08ZM88.58,137.47c.43-10.42.98-18.33-.98-26.61-2.54-10.73-12.74-16.1-22.87-16.34-12.75-.3-24.21,8.08-24.56,21.59l-.44,17.46c-.04,1.45,2.1,4.23,3.46,4.22l45.39-.31Z"/>
    <path class="cls-1" d="M97.2,46.55l-6.02,1.4-59.19-.13-4.66-31.4c-.17-1.17-.11-3.23.04-4.07.19-1.04,3.28-.85,4.49-.17l15.01,8.48L64.5,0l17.09,20.72,20.28-10.19-4.66,36.03ZM93.22,43.12l3.31-24.98-16,8.26-16.13-19.7-16.24,19.73-16.2-8.72,3.92,25.43,57.34-.02Z"/>
  </g>
</svg>