<?xml version="1.0" encoding="UTF-8"?>
<svg id="Capa_2" data-name="Capa 2" xmlns="http://www.w3.org/2000/svg" viewBox="0 0 118 142.69">
  <defs>
    <style>
      .cls-1 {
        fill: #7889de;
      }
    </style>
  </defs>
  <g id="Capa_1-2" data-name="Capa 1">
    <path class="cls-1" d="M114.25,142.69l-114.11-.12-.14-46.99,25.33-15.39.09-18.67-3.62-4.13,34.47-29.27.16-14.63-8.04-.86c-.59-.06-1.05-2.95-.45-3.04l3.68-.6,3.93-.28c.98-.07.66-3.04.84-4.07l.72-3.99c.16-.86,3.34-.85,3.5,0l.68,3.65.29,3.99c.07,1.01,3.25.58,4.27.66l3.39.26c.83.06,1.04,3.24.25,3.33l-8.24.96.12,14.66,34.47,28.76c-.76,1.39-1.76,2.67-3.19,4.19l-.09,19.06,25.34,15.38.1,43.96c-.07.95-2.18,3.19-3.74,3.19ZM73.47,111.67l.42,26.42,13.97-.14.21-81.3-29.3-24.72-29.03,24.74.13,81.29,14.1.12.5-27.7c.15-8.32,8.31-12.85,15.45-12.55,6.75.28,13.41,5.6,13.54,13.85ZM4.84,138.25l20.64-.33-.17-52.4-20.57,12.36.1,40.37ZM113.02,137.97l-.04-40.32-20.4-12.05-.07,52.55,20.51-.18ZM69.29,138.01l.02-24.67c0-6.3-4.4-11.02-10.47-11.08-4.97-.04-10.26,4.15-10.28,10.13l-.12,25.74,20.85-.13Z"/>
    <path class="cls-1" d="M55.05,61.82c6.07-2.13,11.93.81,13.65,5.79,1.95,5.65-.54,11.8-5.97,13.7-5.19,1.82-11.31-.09-13.42-5.11-2.23-5.28-.6-12.15,5.74-14.38ZM56.65,65.86c-3.57,1.43-4.88,5.47-3.27,8.37,1.45,2.61,5.42,4.02,8.16,2.65s4.22-5.3,2.82-8.14c-1.19-2.41-5.01-3.97-7.71-2.88Z"/>
  </g>
</svg>