<?xml version="1.0" encoding="UTF-8"?>
<svg id="Capa_2" data-name="Capa 2" xmlns="http://www.w3.org/2000/svg" viewBox="0 0 112.59 138.66">
  <defs>
    <style>
      .cls-1 {
        fill: #7889de;
      }
    </style>
  </defs>
  <g id="Capa_1-2" data-name="Capa 1">
    <path class="cls-1" d="M61.65,117.38l-5.27-7.88-5.19,7.86-28.68,20.88c-.77.56-3.6.6-3.47-.18l.54-3.28,26.43-19.23c3.82-4.6,7.3-8.58,8.02-14.38l-.06-52.64c.38-.48-3.71-1.19-3.89-.37l-3.42,15.58c-.17.77-.93,2.08-1.28,2.63s-3.42-1.04-3.3-1.65l3.39-18.12,4.58-4.73,2.9-32.37c.12-1.31-1.15-4.28-2.33-4.52s-3.6.45-4.92,1.15l-17.13,54.8-1.1,32.09L3.41,110.21c-.46.36-2.51.01-3.14-.19s-.02-2.89.74-3.44l22.19-16.03c1.87-11.01-1.36-21.52,1.7-31.56L40.55,7.53c1.08-3.56,3.18-6.28,6.67-7.19,2.89-.75,6.9,1.64,9.15,3.39C58.44,2.15,62.33-.19,64.68.01c3.4.3,6.02,3.17,7.1,6.67l15.85,51.42c3.18,10.3.23,21.74,2.21,32.67l21.65,15.62,1.07,2.81c.32.83-2.22,1.39-3.1,1.39l-24.11-17.63-1.17-32.19-16.57-52.2c-.57-1.79-2.36-4.03-3.77-4.13-1.73-.12-4.55,3.08-4.34,4.99l3.56,32.96c2.29,2.12,4.5,5.19,5.06,7.96l2.56,12.8c.22,1.09-.45,3.24-1.35,3.43s-2.85-1.35-3.09-2.47l-3.2-14.86c-.11-.49-.98-2.07-1.43-1.89l-2.92,1.2-.19,50.35c.15,6.83,3.51,11.66,8.16,16.53l26.46,19.23.44,3.4c.11.81-2.67.6-3.27.36l-28.63-21.04ZM58.35,41.85l-2.09-14.04-2.05,13.08c-.14.87,1.41,2.92,2.01,3.45.45.41,2.23-1.85,2.13-2.5Z"/>
  </g>
</svg>