<?xml version="1.0" encoding="UTF-8"?>
<svg id="Capa_2" data-name="Capa 2" xmlns="http://www.w3.org/2000/svg" viewBox="0 0 145.7 115.37">
  <defs>
    <style>
      .cls-1 {
        fill: #7889de;
      }
    </style>
  </defs>
  <g id="Capa_1-2" data-name="Capa 1">
    <path class="cls-1" d="M131.34,115.27l-112.82.1c-8.53,0-18.26-4.86-18.28-14.74L0,18C-.03,8.55,6.57,0,16.69,0h112.62c9.18,0,16.38,8.13,16.38,17.04v81.42c.01,8.36-5.74,15.29-14.34,16.81ZM130.11,110.76c5.27-.96,10.67-4.67,10.67-9.98l-.02-84.98c0-5.57-5.52-11.08-11.13-11.08l-115.39.06c-5.16,0-9.57,6.68-9.57,11.27v82.06c-.01,6.67,4,11.56,10.73,12.62l114.71.03Z"/>
    <path class="cls-1" d="M62.09,89.87l-34.98.06c-2.2,0-5.7-2.45-6.06-4.56-1.97-11.63,4.49-21.39,15.05-25.41-9.18-5.96-10.79-17.95-4.36-25.79,6.3-7.68,18.71-8.11,25.34-.66,6.97,7.82,5.52,20.12-3.98,26.48,9.8,3.69,15.54,11.8,15.48,22.33-.03,4.05-2.28,7.27-6.49,7.56ZM45.54,57.84c7.06-.54,11.59-6.77,11.34-13.13-.26-6.55-5.16-12.18-12.39-12.08-7.22.1-12.38,6.34-12.02,13.16.34,6.4,5.99,12.59,13.07,12.05ZM63.9,85.5c1.26-9.87-2.83-15.94-9.01-19.55-6.51-3.8-13.56-4.02-20.27-.25s-11.16,11.55-8.31,19.87l37.59-.08Z"/>
    <path class="cls-1" d="M123.36,41.19l-37.36.2c-.97,0-3.05-1.19-3.44-1.99s1.65-2.66,2.61-2.66l36.66.02c.69,0,2.48.56,3.07.77.78.27-.31,3.65-1.55,3.66Z"/>
    <path class="cls-1" d="M123.58,61.61h-38.65s-2.25-1.77-2.25-1.77c-.65-.51,1.59-2.43,2.23-2.57l38.18-.04,2.14,1.72c.47.38-.95,2.05-1.65,2.66Z"/>
    <path class="cls-1" d="M108.17,82.15l-22.54.05c-.93,0-2.6-1.18-3.07-1.61s1.02-2.83,1.65-2.84l22.07-.19c.79,0,2.89.96,3.46,1.23.76.36-.7,3.36-1.57,3.36Z"/>
  </g>
</svg>