<?xml version="1.0" encoding="UTF-8"?>
<svg id="Capa_2" data-name="Capa 2" xmlns="http://www.w3.org/2000/svg" viewBox="0 0 98.03 139">
  <defs>
    <style>
      .cls-1 {
        fill: #7889de;
      }
    </style>
  </defs>
  <g id="Capa_1-2" data-name="Capa 1">
    <path class="cls-1" d="M40.03,121.7l-.13,13.96c0,1.01-.97,2.72-1.57,3.24s-3.02-1.3-3.05-2.19l-.48-14.94-12.96-.23c-.59-.01-2.17-1.21-2.55-1.67-.52-.62,1.6-2.56,2.55-2.57l13.27-.14-.08-19.49c-17.29-1.57-29.77-13.19-33.71-27.67-4.43-16.28,2.74-32.84,15.54-41.04,14.78-9.47,32.31-8.06,45.86,3.15l26.89-26.84-19.27-.56c-1.01-.03-3.34-1.74-3.01-2.42C67.75,1.46,69.76,0,70.7,0l27.03.03.3,30.12-2.08,2.02c-.56.55-2.29-1.44-2.31-2.43l-.42-21.24-27.31,26.84c9.11,11.35,12.31,25.78,6.12,39.88-5.21,11.86-17.18,21.42-32.05,22.36v19.66s13.75.06,13.75.06c.57,0,2.16,1.36,2.46,1.83.41.64-1.42,2.44-2.27,2.45l-13.88.1ZM36.69,27.42c-19.15.66-32.87,16.22-31.88,34.74.93,17.31,16.06,31.78,34.31,30.88,17.28-.85,32.13-15.69,31.39-33.82-.71-17.44-15.04-32.45-33.82-31.8Z"/>
  </g>
</svg>