<?xml version="1.0" encoding="UTF-8"?>
<svg id="Capa_2" data-name="Capa 2" xmlns="http://www.w3.org/2000/svg" viewBox="0 0 114.52 149.92">
  <defs>
    <style>
      .cls-1 {
        fill: #7889de;
      }
    </style>
  </defs>
  <g id="Capa_1-2" data-name="Capa 1">
    <path class="cls-1" d="M99.77,22.78l-9.19-.02c-.94,0-1.39-3.91-.44-4.01,3.48-.35,10.25-.55,14.43.16,4.9.83,9.96,6.53,9.95,11.64l-.06,107.73c0,4.85-6.28,11.49-11.13,11.5l-88.9.15C5.73,149.93-.01,143.57,0,135L.18,29.44c0-4.56,5.85-10.39,9.94-10.53l13.76-.47c.63-.02,1.91,2.27,1.5,2.75s-1.81,1.64-2.45,1.63l-7.58-.06c-5.65-.04-10.85,3.69-10.85,10.11l-.03,102.09c0,5.78,4.51,10.46,10.13,10.46l85.35-.02c5.79,0,10.16-4.56,10.16-10.44l.02-101.17c0-5.9-3.3-11.01-10.37-11.02Z"/>
    <path class="cls-1" d="M36.77,106.82l17.5.15c.84,0,2.38,1,2.9,1.45s-.99,2.92-1.67,2.92l-18.05.05c-5.57-1.39-6.61-5.86-6.25-10.56.8-10.57,7.07-18.51,17.31-21.86-10.18-6.25-11.45-18.63-5.21-26.77,6.82-8.88,20.05-8.92,27.05-.84,7.37,8.5,5.12,21.21-4.03,27.46,5.16,2.3,8.77,4.93,12.22,8.54l-1.96,2.6c-.45.6-2.49-.42-3.14-.81-9.78-9.83-24.98-9.09-33.82,1.43-3.32,4.59-4.78,10.05-2.84,16.22ZM58.51,76.49c8.04-.75,12.19-8.14,11.49-14.89-.63-6.16-6.12-11.72-13.12-11.48-7.75.26-12.85,6.73-12.58,13.49.29,7.12,5.73,13.66,14.21,12.88Z"/>
    <path class="cls-1" d="M79.98,33.3l-43.72.17c-2.31,0-6.03-1.76-7.01-3.43-2.73-4.66-2.3-14.41,1.26-17.74,2.41-2.25,6.38-2.63,10.43-2.38C42.22,4.71,45.43-.02,51.37,0l12.02.04c5.94.02,9.51,4.53,10.39,9.93,4.03-.29,8.27-.03,10.52,2.21,5.22,5.18,3.79,21.08-4.33,21.11ZM81.26,28.54c1.26-5.01,1.3-10.48-.62-13.63l-11.8-1.35c.8-4.25-.97-8.95-4.42-8.89l-14.96.24c-2.97.05-4.21,6.09-3.56,8.92l-12.3,1.13c-1.15,4.52-1.24,8.26-.25,13.52l47.9.06Z"/>
    <path class="cls-1" d="M100.29,109.39c1.57,9.36-1.88,17.29-8.83,21.59-7.02,4.34-16.01,4.1-22.46-.91-6.69-5.2-9.4-13.8-6.94-22.62,2.43-8.7,10.5-14.48,19.27-14.03,8.53.45,17.32,6.18,18.96,15.96ZM95.02,119.27c3.33-9.92-2.45-19.33-11.67-21.03-9.36-1.72-17.91,5.88-17.34,15.6.46,7.87,5.14,14.23,12.73,15.18,6.62.83,13.78-2.29,16.28-9.76Z"/>
    <path class="cls-1" d="M76.73,120.76l-5.38-6.92c-.23-.09,1.93-3.18,2.64-2.62l4.59,3.63,8.01-7.64c.58-.55,2.84-.95,3.52-.64.91.42.3,2.73-.45,3.61l-9.06,10.57c-.77.9-3.25.79-3.87,0Z"/>
  </g>
</svg>