<?xml version="1.0" encoding="UTF-8"?>
<svg id="Capa_2" data-name="Capa 2" xmlns="http://www.w3.org/2000/svg" viewBox="0 0 137.77 125.98">
  <defs>
    <style>
      .cls-1 {
        fill: #7889de;
      }
    </style>
  </defs>
  <g id="Capa_1-2" data-name="Capa 1">
    <path class="cls-1" d="M115.74,115.74l-9.83-12.8-8.72,10.99c-1.55,1.95-3.75,5.18-5.77,5.79-2.6.79-5.93-.59-9.04-2.14-4.3,6.01-11.94,11.14-19.2,6.76-4.32-2.61-7.81-7.54-11.49-11.33L9.51,69.61C-4.36,53.5-2.32,29.95,10.86,14.84,26.43-3,51.15-4.42,69.31,8.99c11.49-7.99,25.38-11.7,39.9-6.76,10.83,3.68,21.43,12.59,25.97,25.25,5.42,15.13,1.87,29.62-6.31,42.9l-9.24,15,14.3,15.22c3.55,3.78-1.4,8.97-2.93,11.98-1.81,3.55-3.62,6.57-6.71,7.28-3.4.79-6.5-1.44-8.55-4.12ZM91.47,84.53c-3.35-4.74-6.33-8.26-8.18-12.77-4.9-11.93-1.47-26.75,8.11-35.3s25.06-7.01,32.24,3.64c3.4,5.04,4.86,10.88,6.97,16.56,8.27-21.47-3.85-44.49-25.06-50.65-12.97-3.76-26.07-.46-36.02,9.3C52.11-.68,27.04,1.33,12.7,19.93c-10.41,13.49-12.16,34.01.57,47l44.59,45.48c3.28,3.35,5.42,8.57,11.02,8.92,4.02.25,10.86-5.02,10.19-9.31-.56-2.72-4.45-7.91-2.16-10.57l14.57-16.91ZM116.99,46.14l1.71-5.15c-6.86-6.9-16.5-7.68-24.02-1.27-.86.74-2.13,2.51-2.01,3.49.09.79,1.4,2.55,1.96,2.94,7.12-2.29,14.66-2.83,22.36-.01ZM101.96,71.11c-5.98-8.37-9.15-14.37-12.96-23.47-5.94,11.29-3.61,23.76,5.91,32.97l7.04-9.5ZM88.25,116.32l4.54-4.64c9.89-11.9,19.5-23.44,27.76-36.4,5.56-8.72,6.76-18.58,1.51-28.06-10.1,21.91-25.78,39.6-41.51,56.9l7.69,12.19ZM105.26,67.39l10.05-17.13c-7.72-1.54-12.55-1.43-20.03.28,3.22,6.62,5.68,11.23,9.98,16.85ZM122.94,115.93l7.77-12.16-14.02-14.62-7.58,10.42,13.83,16.36Z"/>
  </g>
</svg>