<?xml version="1.0" encoding="UTF-8"?>
<svg id="Capa_2" data-name="Capa 2" xmlns="http://www.w3.org/2000/svg" viewBox="0 0 99.46 136.15">
  <defs>
    <style>
      .cls-1 {
        fill: #7889de;
      }
    </style>
  </defs>
  <g id="Capa_1-2" data-name="Capa 1">
    <path class="cls-1" d="M94.88,97.56c-.76-15.71-10.07-28.19-23.84-34.54-.28-.19-.8-3.16-.12-3.22l3.7-.36c15.58,7.8,25.19,23.39,24.77,41l.07,25.11c.02,6-4,10.61-10.3,10.61l-79.1-.03c-5.93,0-10.13-5.14-10.06-10.55l.35-29.37c.21-17.2,12.45-31.36,27.44-37.99l2.56,1.67c.68.44-.72,2.61-1.36,3.03-15,6.33-24.05,20.33-24.16,36.56l.03,25.03c0,1.58.38,4.3,1.29,5.23,1.06,1.08,4.37,1.82,6.18,1.82l46.44-.1,31.77-.07c1.58,0,4.33-3.06,4.33-4.68v-29.13Z"/>
    <path class="cls-1" d="M42.74,57.99c-9.87-2.95-17.35-11.07-20.13-20.43-4.28-14.4,2.3-30.01,17.15-35.62,10.09-3.81,20.19-1.84,28.37,4.38,11,8.37,13.88,23.72,7.94,35.73-5.85,11.84-19.32,20.14-33.34,15.94ZM58.11,52.42c15.62-5.83,20.91-23.84,12.32-36.96C62.36,3.11,44.11.64,33.12,11.54c-8.51,8.44-9.36,20.54-3.58,30.45,5.44,9.31,17.14,14.7,28.57,10.43Z"/>
    <path class="cls-1" d="M73.22,98.54c-3.55,9.95-18.72,23.05-22.54,23.19-3.25.12-6.04-2.34-8.54-4.64-6.04-5.55-12.57-10.76-14.94-18.75-1.86-6.27.72-12.68,5.18-16.08,5.3-4.05,11.83-3.98,17.66.38,5.76-3.99,12.31-4.56,17.44-1.12,5.3,3.56,8.07,10.51,5.75,17.02ZM68.51,98.37c2.74-5.89-.34-11.03-4.49-13.53-5.22-3.14-10.1,1-13.96,3.73-4.32-2.93-8.87-6.69-14.08-3.51-3.57,2.18-6.55,7.98-3.87,12.97,3.98,7.41,10.23,13.04,17.43,19.3,6.74-3.28,16.25-13.15,18.96-18.98Z"/>
  </g>
</svg>