<?xml version="1.0" encoding="UTF-8"?>
<svg id="Capa_2" data-name="Capa 2" xmlns="http://www.w3.org/2000/svg" viewBox="0 0 115.73 148.86">
  <defs>
    <style>
      .cls-1 {
        fill: #7889de;
      }
    </style>
  </defs>
  <g id="Capa_1-2" data-name="Capa 1">
    <path class="cls-1" d="M110.77,29.24c0-7.07-8.1-9.09-13.03-8.51-3.2.38-6.45.44-7.04-3.65l9.21-.69c7.92-.6,15.82,4.9,15.82,13.71l-.03,104.7c0,8.41-6.88,14.04-14.83,14.04l-86.08.02c-7.82,0-14.78-5.47-14.79-14.1V30.14C0,20.13,9.31,15.26,18.1,16.44c2.09.28,6.67-.78,6.62,2.86-3.28,3.4-10.17-.6-16.35,3.31-1.92,1.22-3.68,5.1-3.68,8.22l.07,104.45c0,5.79,4.9,8.99,10.04,8.99l87.12-.04c4.96,0,8.95-3.91,8.94-8.94l-.1-106.06Z"/>
    <path class="cls-1" d="M74.15,83.93l-10.86,26.02c-.47,1.13-2.21,2.97-3.29,2.84s-2.23-2.18-2.61-3.47l-11.16-37.88-8.38,18.82-18.73.11c-.8,0-2.85-1.83-2.62-2.45.3-.81,1.97-2.36,3.09-2.38l15.6-.22,8.88-21.87c.24-.59,1.43-2.25,1.97-2.01l2.47,1.11,12.19,40.81,12.47-28.19,8.55,10.28,14.51.07c1.03,0,3.07,1.55,3.03,2.43s-2.09,2.56-3.16,2.54l-15.58-.23c-1.84-.03-4.14-3.63-6.37-6.33Z"/>
    <path class="cls-1" d="M83.36,32.79l-49.9.02c-5.97,0-7.73-15.69-2.85-20.63,2.02-2.04,6.73-2.27,10.49-2.12,1.1-5.32,3.84-9.76,9.65-9.86L62.75,0c6.69-.11,10.36,3.64,11.78,10.17,3.49-.29,8.03-.06,9.89,1.64,3.63,3.31,4.72,16.74-1.05,20.97ZM82.13,28.63c.63-6.15.53-10.04-.39-14.03l-11.86-.49c-.61-3.52-1.35-6.78-2.9-9.52l-18.26.12c-2.06,1.44-2.96,6.02-3.08,9.21l-11.88.87c-1.72,4.61-1.79,8.87.05,13.89l48.32-.04Z"/>
  </g>
</svg>