<?xml version="1.0" encoding="UTF-8"?>
<svg id="Capa_2" data-name="Capa 2" xmlns="http://www.w3.org/2000/svg" viewBox="0 0 144.63 125.21">
  <defs>
    <style>
      .cls-1 {
        fill: #7889de;
      }
    </style>
  </defs>
  <g id="Capa_1-2" data-name="Capa 1">
    <path class="cls-1" d="M134.63,108.21l-5.89.19c-.76,9.78-8.23,16.82-17.23,16.76-9.28-.05-17.11-6.78-17.35-16.86l-47.2-.21c-.33,9.75-8.06,17.03-17.08,17.12-9.61.09-17.11-7.08-17.64-17.16C5.4,108.72,0,104.38,0,98.01L.02,30.77c0-7.42,6.77-10.2,12.8-10.22l39.79-.11.62-10.43C53.64,3.35,58.91-.04,65.23,0c4.28.03,8.65.31,11.49,3.23s3.34,7.55,3.52,12.07l.19,4.7c.05,1.33,9.78-1.1,13.72,4,2.03,2.64,2.48,5.95,2.64,10.71l13.19.24c5.77.11,11.46,3.54,14.46,8.31l14.36,22.85c2.52,4,5.58,9.77,5.63,14.52l.21,18.53c.06,5.42-4.66,8.88-9.99,9.06ZM74.93,20.22c.35-4.78,1.03-9.99-1.44-13.15-3.07-3.92-12.27-3.88-14.8.54-1.76,3.12-1.2,8.09-1.03,12.64l17.27-.03ZM136.22,71.73l-33.85-.07c-6.81-.01-10.57-6.14-10.56-12.24l.04-27.85c0-3.19-2.39-6.59-5.96-6.58l-75.15.07c-3.6,0-6.4,4.42-6.4,7.76l.03,65.09c0,3.88,5.57,7.52,7.79,5.25,3.21-7.94,9.25-13.78,17.73-13.74,8,.03,15.2,5.29,17.13,14.3l47.22-.04c2.12-8.78,9.29-14.31,17.26-14.29,8.13.02,15.27,5.55,17.17,13.84,2.74,1,7.68.75,9.76-1.04,3.32-2.86,3.58-22.69-2.22-30.46ZM133.5,66.6l-10.01-16.98c-3.16-3.78-6.54-7.22-10.46-10.3l-16.31-.2-.12,21.07c-.29,3.39,2.17,6.11,5.54,6.7l31.35-.29ZM29.85,120.46c7.76.02,12.28-6.61,12.49-13.12s-4.39-12.42-11.26-13.14c-7.69-.81-13.59,5.35-14.01,12.12-.45,7.25,4.47,14.12,12.78,14.15ZM113.03,120.26c7.12-.81,11.11-6.7,11.19-12.87s-3.91-11.68-10.57-13.07c-8.08-1.69-14.95,5.16-14.96,12.98,0,7.21,5.83,13.94,14.35,12.96Z"/>
    <path class="cls-1" d="M56.83,80.68h-17.37s-.87-12.25-.87-12.25l-11.75-.8-.22-17.86,12.06-1.02.62-12.01,17.77-.32c.86,2.69,1.4,5.71,1.5,8.17l.17,3.92c.09,2.03,7.51-1.12,11.62,2.31l.17,15.54c-1.89,1.62-5.99,2.15-8.32,2.14l-3.01-.02c-1.9-.01.91,7.36-2.37,12.21ZM53.96,76.17l.22-11.97,11.55-.87-.18-9.72-11.33-.61-.52-11.95-10.32-.19-.22,12.36-11.92.24-.11,9.99,11.92.48.41,12.47,10.5-.22Z"/>
  </g>
</svg>