<?xml version="1.0" encoding="UTF-8"?>
<svg id="Capa_2" data-name="Capa 2" xmlns="http://www.w3.org/2000/svg" viewBox="0 0 104.95 133.22">
  <defs>
    <style>
      .cls-1 {
        fill: #7889de;
      }
    </style>
  </defs>
  <g id="Capa_1-2" data-name="Capa 1">
    <path class="cls-1" d="M85.46,128.65l14.42.19-.46-33.79c-.21-15.35-12.69-27.1-26.34-32.64l-16.02,39.33c6.2,4.05,9.26,10.24,8.17,17.36-.87,5.67-5.31,13.59-12.66,13.67l-40.16.43C5.78,133.27-.09,128.38,0,121.59l.31-23.29c2.08-23.33,19.42-40.29,43.71-43.54-13.23-6.95-20.58-18.17-18.22-31.97C27.99,10.03,39.01.4,52.27.01c13.29-.39,25.65,9.34,27.68,22.95s-4.81,25.84-18.43,31.76c25.67,3.59,43.22,21.98,43.32,46.8l.12,27.46c0,1.52-2.43,4.26-4.04,4.24l-19.63-.27-.13-34.66c.27-.65,1.07-2.43,1.68-2.24l2.64.83-.02,31.77ZM42.93,48.69c9.41,4.71,19.42,1.93,25.87-4.62,6.82-6.92,8.98-16.54,4.91-25.94-3.39-7.84-12.2-13.89-22.03-13.4-10.91.54-19.19,8.76-21.14,18.66s2.71,20.45,12.39,25.3ZM53.29,98.69l15.28-37.74c-10.91-2.89-21.41-2.79-32.2.1l9.58,37.8c2.04.95,5.36,1,7.35-.16ZM40.99,99.44l-9.57-37.1-10.2,37.2,19.77-.1ZM49.94,128.64c7.53-.04,11.35-7.92,10.74-13.34-.77-6.8-5.72-10.93-12.95-11.03l-34.4-.03c-.51-1.05-1.13-3.38-.34-3.62l3.4-1.05,9.12-33.39c-12,6.36-20.28,18.64-20.44,32.17l-.29,24.1c-.04,3,4.57,6.41,7.63,6.39l37.54-.19Z"/>
  </g>
</svg>