<?xml version="1.0" encoding="UTF-8"?>
<svg id="Capa_2" data-name="Capa 2" xmlns="http://www.w3.org/2000/svg" viewBox="0 0 123.73 144.66">
  <defs>
    <style>
      .cls-1 {
        fill: #7889de;
      }
    </style>
  </defs>
  <g id="Capa_1-2" data-name="Capa 1">
    <path class="cls-1" d="M92.82,144.62l-81.93.04c-1.48,0-4.51-1.22-5.71-2.09l-.05-42.68c-2.29-.97-3.29-1.52-5.13-3.19l29.03-20.52.25-15.11-2.53-4.29,32.97-28.32-.04-15.05-6.64-.23c-.8-.03-2.73-1.99-2.19-2.59s2.26-1.53,3.14-1.58l4.87-.28c1.25-.07.63-3.92.91-5.12l.67-2.95c.15-.65,2.71-.95,2.91-.31s.68,2.38.75,3.14l.43,4.42c.11,1.14,3.42.99,4.56,1.11l3.42.35c.8.08.72,2.29.48,3.5l-8.52.68.07,15,33.06,28.43-3.08,3.6.22,15.31,28.96,20.37c-.08.89-.31,2.44-.93,2.59l-3.61.83-.14,44.2-26.21.75ZM76.75,113.81l.09,25.95,13.27-.16.03-82.93-28.2-24.08-27.79,24.08.06,82.99,13.33.03-.16-24.18c-.06-8.44,5.42-15.14,13.98-15.92,7.25-.66,15.35,5.45,15.38,14.21ZM10.09,139.8l19.1-.11-.04-58.09-19.24,13.96.18,44.24ZM114.32,139.67l-.13-44.46-19.47-13.75-.07,58.25,19.68-.04ZM72.47,139.57l-.22-25.94c-.05-5.48-5.35-9.42-10.2-9.48-4.51-.05-9.97,3.99-10.02,9.48l-.22,26.14,20.66-.2Z"/>
    <path class="cls-1" d="M75.29,72.86c-2.23,5.36-7.75,10.94-13.49,12.57-5.16-1.99-10.29-6.85-12.61-11.49-1.75-3.5-.37-8.34,2.16-10.44,2.92-2.42,6.49-1.68,10.51-1.55,3.67.12,7.46-1.13,10.42,1.08,2.57,1.92,4.53,6.16,3,9.82ZM70.34,73.06c1.17-1.12.8-5.62-.57-6.42-1.51-.87-3.48-.66-5.73.54-4.02,2.14-5.32-2.76-9.51-.64s-.12,9.44,7.64,14.32l8.17-7.8Z"/>
  </g>
</svg>