<?xml version="1.0" encoding="UTF-8"?>
<svg id="Capa_2" data-name="Capa 2" xmlns="http://www.w3.org/2000/svg" viewBox="0 0 112.98 142.79">
  <defs>
    <style>
      .cls-1 {
        fill: #7889de;
      }
    </style>
  </defs>
  <g id="Capa_1-2" data-name="Capa 1">
    <path class="cls-1" d="M112.35,116.31l.62,26.34-108.9.14c-1.11,0-4.09-1.63-4.07-2.86l.37-20.38c.2-10.82,7.18-19.79,17.15-23.15l13.99-4.71c4.08-1.37,8.11-5.16,7.66-9.84-11.01-8.89-15.07-22.31-12.55-35.95l-2.33-10.82-5.91-8.93c-2.93-4.43-2.12-8.93,1.99-12.06,24.47-18.66,48.57-18.99,72.72.15,4.69,3.72,4.19,8.3,1.25,13.01l-5.75,9.23c-4.72,7.57,5.86,28.85-14.61,45.72-.39,4.43,4.07,8.27,8.13,9.66l16.39,5.61c7.31,2.5,13.66,10.54,13.86,18.83ZM83.78,34.07l9.2-13.67C68.81-.55,44.64-.6,20.61,20.14c2.97,5.85,5.87,9.93,9.26,13.8,18.61-1.96,35.35-1.94,53.91.13ZM83.81,39.62c-.15-2.89-38.6-3.64-53.57-1.3-.81,2.32.71,5.56,2.99,6.59,20.56,9.29,51.02,3.42,50.58-5.28ZM63.07,82.32c14.4-4.19,21.87-19.35,19.4-33.38-16.64,6.96-34.64,7.62-51.39-.16-1.47,5.16-.61,9.62.93,14.74,3.9,12.93,16.75,22.97,31.06,18.8ZM74.48,93.46l-5.3-8.42c-8,4.11-17.63,3.8-25.33-.29l-5.17,8.89,17.76,13.1,18.04-13.28ZM54.35,138.35l-.13-27.79-19.81-14.87-13.44,4.12c-8.86,2.72-15.79,10.34-15.89,20.07l-.18,18.57,49.44-.09ZM108.55,138.32l-.29-19.4c-.11-6.97-5.07-14.88-11.81-17.23l-17.3-6.03-20.22,15.17.09,27.62,49.53-.13Z"/>
    <path class="cls-1" d="M91.94,124.53c1.15.21,1.73,3.54,1.28,4.56-.54,1.23-3.65,2.13-5,1.91l-5.43-.9c-1.16-.19-.54-5,.6-5.3,1.97-.51,6.42-.65,8.55-.27Z"/>
    <path class="cls-1" d="M93.2,113.5c.95,1.77-3.02,4.09-4.75,3.93-2.09-.19-5.4-1.26-6.12-2.9,1.29-3.57,8.54-5.34,10.86-1.03Z"/>
    <path class="cls-1" d="M62.64,27.39c-4.75-.69-7.08-.85-11.25-.37-.88.34-.69-3.97-1.27-5.26l-2.53-5.73c4.51-2,5.7-3.03,9.05-6.77l5.05,4.94,4.06,2.07c1.01.51-1.37,3.44-2.33,4.08l-.79,7.04Z"/>
  </g>
</svg>