<?xml version="1.0" encoding="UTF-8"?>
<svg id="Capa_2" data-name="Capa 2" xmlns="http://www.w3.org/2000/svg" viewBox="0 0 167.13 122.65">
  <defs>
    <style>
      .cls-1 {
        fill: #7889de;
      }
    </style>
  </defs>
  <g id="Capa_1-2" data-name="Capa 1">
    <path class="cls-1" d="M116.28,122.6l-63.8.06c-5.93,0-9.85-5.11-9.8-10.37l.23-29.73c.04-5.5,3.11-12.05,4.88-16.97-4.12-6.1-11.65-8.04-18.68-8.27-12.92-.42-24.68,8.97-24.37,22.1l.49,20.62,26.6.22c.86,0,2.59,1.17,3.01,1.62.56.6-1.86,2.63-2.67,2.63H7.42C3.01,104.52-.03,100.78,0,96.72l.12-16.98c.09-11.69,7.09-21.07,18.88-25.65-9.41-7.31-11.15-19.43-3.73-28.17,6.91-8.14,19.91-8.01,27.41.17,7.29,7.95,5.73,20.92-3.98,27.66l12.3,7.5c5.73-6.97,13.62-11.7,23.02-13.76-10.22-4.93-16.1-15.53-14.25-27.11C61.36,10.41,70.14,1.16,81.46.11c12.15-1.13,23.01,6.81,25.95,17.91s-1.81,23.12-13.38,29.36c9.02,2.07,16.9,7.06,22.82,13.81l11.79-7.45c-9.47-5.99-11.12-19.43-3.61-27.98s21.32-8.14,28.24,1.48c6.34,8.82,3.39,20.39-5.08,26.93,11.45,4.24,18.51,13.31,18.67,24.65l.26,18.01c.04,3.01-2.56,7.64-6.47,7.63l-26.15-.03c-.68,0-2.68-2.47-2.16-2.81.71-.46,2.61-1.39,3.56-1.4l26.02-.19c.37-8.39.75-15.94-.04-23.83-1.13-11.41-11.87-18.67-22.64-18.89-7.55-.15-15.11,2.22-19.38,8.32,1.87,4.49,4.84,10.76,4.86,16l.12,31.69c.01,3.73-3.71,9.26-8.57,9.27ZM90.58,43.49c10.53-4.12,15.11-14.82,11.98-24.83-2.82-9-12.57-16.1-22.52-13.69-12.02,2.91-18.45,14.33-15.27,25.23,3.08,10.56,14.56,17.7,25.82,13.29ZM23.48,50.94c8.34,4.36,17.39-2.16,18.81-10.22,1.48-8.4-4.35-16.01-13.43-16.31-6.42-.21-11.85,4.86-13.22,10.64-1.38,5.83,1.51,12.58,7.84,15.89ZM138.1,52.26c7.8.33,13.88-6.43,14.1-13.64s-5.45-13.94-13.31-14.31-13.67,6.24-13.93,13.32,5.12,14.29,13.14,14.64ZM115.8,117.9c1.43,0,4.17-2.3,4.19-3.71.19-11.41,1.24-24-.69-35.63-2.87-17.33-18.76-27.57-35.69-27.63-19.09-.06-35.78,13.37-35.94,32.86l-.24,29.63c-.01,1.56,2.74,4.43,4.45,4.43l63.91.04Z"/>
  </g>
</svg>