<?xml version="1.0" encoding="UTF-8"?>
<svg id="Capa_2" data-name="Capa 2" xmlns="http://www.w3.org/2000/svg" viewBox="0 0 145.78 129.66">
  <defs>
    <style>
      .cls-1 {
        fill: #7889de;
      }
    </style>
  </defs>
  <g id="Capa_1-2" data-name="Capa 1">
    <path class="cls-1" d="M131.25,50.22c8.58.13,14.46,8.77,14.47,16.04l.06,31.78c.02,10.65-8.62,18.24-19.35,17.28l.06,10.92c0,.78-.61,2.5-.93,3.1s-3.06.27-3.68-.29l-15.23-13.59-19.55-.27c-9.48-.13-16.97-7.92-17-17.21l-.08-20.79-20.28-.11-19.08,17.59c-.53.49-2.3,1.14-2.93,1.07-.83-.09-1.71-2.17-1.74-3.11l-.52-15.64C10.98,78.73-.06,69.31,0,55.59L.18,18.51C.22,8.95,8.72.23,18.43.19L67.59,0c11.18-.04,21.44,8,21.41,19.75l-.1,38.72c-.02,8.51-6.56,14.72-14.07,17.42l.13,23.28c.04,7.05,6.52,11.83,13.19,11.87l20.41.13,13.27,12.03.43-10.94c.59-.59,3.86-1.33,5.32-1.26,7.23.37,14.03-5.19,13.99-13.08l-.16-31.21c-.04-7.23-5.66-12.42-12.37-12.81l-31.14.02-2.54-2.16c-.57-.48,1.98-2.05,2.93-2.04l32.97.49ZM47.57,72.82l20.84-.23c9.17-.1,16.1-7.23,16.13-16.2l.12-34.65c.03-8.31-5.76-17.13-15.18-17.16l-49.89-.17c-8.18-.03-15.18,7.24-15.14,15.24l.21,37.7c.05,9.48,8.65,14.39,17.11,15.17l8.31.76.31,15.36,17.18-15.82Z"/>
    <path class="cls-1" d="M109.31,94.17l-11.94,6.46c-.66.35-3.45-.45-3.9-1.04-.6-.79.71-2.65,1.7-3.12l10.71-5.11c-3.49-5.56-5.45-9.6-7.73-15.43-2.82.19-6.03-.38-6.64-3.74l15.35-.69c-.49-2.89-.29-6.5,3.18-7.13l1.98,7.15,12.81.12c.59,0,2.71,1.4,2.43,1.87s-1.23,1.81-1.74,1.9l-5.49.92-7.03,14.84,10.53,5.22c.62.31,1.52,1.56,1.76,2.14.32.78-2.93,2.37-3.77,1.94l-12.21-6.28ZM109.76,87.71l5.66-11.76-12.53-.21c2,5.94,2.99,7.98,6.87,11.97Z"/>
    <path class="cls-1" d="M53.08,47.92l-18.19-.17-3.25,8.69c-.32.85-2.26,2.17-3.05,2.06-1-.13-1.64-2.74-1.47-3.8l13.78-34.5,3.14-1.8c.73-.42,2.45,1.29,3.04,1.96l13.8,34.28-.26,3.05c-.07.82-3.09.89-3.41.13l-4.12-9.92ZM51.43,43.3l-7.53-18.09-7.31,18.46,14.83-.37Z"/>
  </g>
</svg>