<?xml version="1.0" encoding="UTF-8"?>
<svg id="Capa_2" data-name="Capa 2" xmlns="http://www.w3.org/2000/svg" viewBox="0 0 146.78 149.71">
  <defs>
    <style>
      .cls-1 {
        fill: #8cc63f;
      }
    </style>
  </defs>
  <g id="Capa_1-2" data-name="Capa 1">
    <path class="cls-1" d="M76.67,125.69c6.51,2.1,10.62,7.04,10.04,13.55-.53,5.94-5.53,10.45-12.09,10.47-5.61.02-11.09-4.51-11.83-10.47s3.46-11.49,9.75-13.3l.05-15.4c-10.8-1.28-19.97-5.84-26.54-15.37l-15.02,8.14c2.63,7.54-.16,14.95-6.42,18.43-6.93,3.85-15.52,1.48-19.38-4.9s-2.36-15.01,3.43-19.35c6.1-4.57,14.94-3.71,20.14,2.27l14.65-8.38c-4.71-10.41-5.14-21.92-.06-32.43l-17.34-11c-6.39,5.67-14.55,6.45-20.54,1.36s-7.61-12.98-2.67-19.84c4.04-5.61,12-8.44,19.17-4.27,6.21,3.6,9.69,11.72,6.18,18.96l17.52,10.81c6.13-8.79,15.82-14.22,26.89-15l-.27-14.8c-6.81-1.71-10.77-7.51-10.21-13.56C62.72,5.14,67.68.43,74,.03c6.26-.4,11.78,3.79,12.97,9.78,1.3,6.6-1.8,13.32-9.66,15.28l-.38,14.77c11.16.86,20.23,6.25,26.77,15.16l17.88-10.45c-1.83-7.01.51-13.01,6.49-16.04,5.51-2.79,12.78-.72,16.26,4.71,3.36,5.24,1.99,12.42-3.01,16.47s-12.24,4.29-17.35-1.48l-18.03,10.9c5.43,10.86,4.94,22.05.09,32.18l15.89,9.65c5.63-5.76,13.64-6.18,19.26-1.99,6.1,4.54,7.18,12.8,3.5,18.87-3.87,6.38-11.91,8.7-18.56,5.29s-9.67-10.73-6.64-18.28l-15.92-9.63c-6.1,9.02-15.48,13.91-26.33,15.21l-.54,15.25ZM72.35,4.92c-4.79,1.53-7.02,6.2-4.96,10.91,1.51,3.46,6.05,6.39,10.43,4.48,3.78-1.66,5.91-6.3,4.59-10.12-1.5-4.33-5.43-6.75-10.06-5.27ZM10.6,28.78c-5.92,2.56-7.12,9.47-4.77,13.94,2.61,4.94,8.4,6.76,12.71,4.98,5.75-2.38,7.74-8.82,5.8-13.46-2.24-5.33-7.94-7.96-13.74-5.46ZM132.42,31.84c-5.35.86-7.72,5.79-6.78,9.91s4.88,6.89,9.26,6.16c4.08-.68,7.43-4.75,6.55-9.67-.57-3.23-4.48-7.14-9.03-6.41ZM70.9,105.62c15.92,2.18,30.28-8.99,33.56-23.12,3.58-15.42-4.44-30.39-18.57-35.99-14.02-5.56-30.85.02-38,13.7-4.92,9.41-5.23,20.01.12,29.86,4.03,7.42,12.21,14.08,22.9,15.55ZM14.83,99.27c-6.25,2.17-8.78,8.36-6.67,13.62,1.87,4.64,7.28,7.45,12.47,5.83s8.42-7.2,6.66-12.52c-1.57-4.74-6.8-8.9-12.46-6.93ZM129.41,101.23c-5.86,2.29-7.83,8.11-6.12,12.47,2.07,5.28,7.62,7.74,12.27,6.06,5.07-1.83,7.91-7.45,6.57-11.8-1.68-5.48-7.01-8.96-12.72-6.73ZM71.1,131.28c-4.08,2.11-4.34,7.31-2.93,9.91,2.32,4.26,6.59,5.17,10.14,3.34s4.71-6.28,3.21-9.71c-1.64-3.76-6.06-5.79-10.42-3.54Z"/>
    <path class="cls-1" d="M72.01,55.25c7.3-1.7,13.49,3.21,14.98,9.71s-2.88,13.3-9.77,14.91c-6.06,1.41-12.57-2.6-14.49-9.16-1.79-6.09,1.66-13.68,9.28-15.45ZM74.01,59.5c-5.22.49-7.89,4.76-7.16,9.04s4.3,7.33,8.73,6.91,7.4-3.95,7.08-8.77c-.24-3.65-3.61-7.65-8.64-7.18Z"/>
  </g>
</svg>