<?xml version="1.0" encoding="UTF-8"?>
<svg id="Capa_2" data-name="Capa 2" xmlns="http://www.w3.org/2000/svg" viewBox="0 0 107.73 122.61">
  <defs>
    <style>
      .cls-1 {
        fill: #8cc63f;
      }
    </style>
  </defs>
  <g id="Capa_1-2" data-name="Capa 1">
    <path class="cls-1" d="M18.94,107.26l-4.56,9.9c-1.86,4.04-5.03,6.5-9.31,5-3.31-1.16-6.47-5.56-4.41-9.43l7.68-14.45C-2.87,73.72.89,44.39,19.98,24.52,40.92,2.72,73.62-3.35,103.57,1.63c8.81,34.04,4.97,77.68-24.65,98.16-17.6,12.17-39.26,14.54-59.98,7.47ZM21.81,103.43c28.06,8.75,57.43-1.05,71.32-26.15,12-21.68,11.66-46.91,7.26-71.69-29.79-4.21-62.97,2.99-81.42,27.08-14.57,19.03-15.87,43.93-5.74,65.54l-8.52,15.5c-.6,1.09.63,3.94,1.63,4.41s3.04-.94,3.65-2.19l5.64-11.73c.62-1.29,4.47-1.29,6.19-.76Z"/>
    <path class="cls-1" d="M21.87,96.17c-.62.74-2.53,1.51-3.4,1.14s-.97-3.15-.32-3.92l14.58-17.28.14-24.98c0-.92,1.06-2.38,1.6-2.71s2.49,1.06,2.5,1.72l.37,20.72,15.01-16.23.08-21.15c0-.77,1.29-2.53,1.93-2.9.8-.46,2.43,1.73,2.45,2.71l.21,15.98,19.77-20.58,2.31,1.14c.65.32-.02,2.62-.51,3.16l-18.12,19.7,17.02.25c.75.01,2.23,1.11,2.62,1.55.51.59-1.06,2.92-2.06,2.92l-22.18.2-15.02,16.48,18.47.45c.59.01,2.13.97,2.62,1.36.65.52-1.03,3.19-1.93,3.19l-23.9.09-14.25,16.98Z"/>
  </g>
</svg>