<?xml version="1.0" encoding="UTF-8"?>
<svg id="Capa_2" data-name="Capa 2" xmlns="http://www.w3.org/2000/svg" viewBox="0 0 135.55 127.45">
  <defs>
    <style>
      .cls-1 {
        fill: #8cc63f;
      }
    </style>
  </defs>
  <g id="Capa_1-2" data-name="Capa 1">
    <path class="cls-1" d="M120.6,127.43l-106.38.03c-6.44,0-14.19-6.58-14.19-13.26L0,13.91C0,6.76,7.63.12,14.66.11L119.46,0c9.56-.01,16.01,8.1,16.02,16.99l.08,92.57c0,8.38-5.06,17.87-14.96,17.87ZM120.96,123.13c5.08-1.29,10.3-5.51,10.3-10.95l.09-95.2c0-5.11-3.83-12.19-9.75-12.2l-107.26-.07c-5.74,0-10.31,5.87-10.3,11.29l.02,96.13c0,7.38,6.87,11.02,13.26,11.02l103.65-.02Z"/>
    <path class="cls-1" d="M112.93,95.51l-92.3-.09c-4.9,0-6.95-4.7-6.95-8.8V23.14c0-4.07,1.86-8.46,6.71-8.48l44.75-.11,50.44.13c3.2,0,5.92,3.44,5.92,6.47v66.37c0,4.79-3.4,7.98-8.57,7.98ZM117.06,91l-.12-72.04-98.52-.05-.11,72.12,98.75-.03Z"/>
    <path class="cls-1" d="M105.48,104.27c2.69-.9,6.13,1.24,6.75,3.52.81,3-.61,5.97-3.83,6.97-1.98.62-5.4-.77-6.38-2.75-1.36-2.74-.55-6.4,3.47-7.74Z"/>
    <path class="cls-1" d="M85.31,104.35c2.81-.98,6.22.66,6.83,3.23s-.68,5.82-3.33,6.98c-1.84.8-5.51-.62-6.52-2.4-1.59-2.79-.27-6.66,3.03-7.81Z"/>
    <path class="cls-1" d="M81.79,61.67c-3.63,5.72-6.09,10.78-11.51,16.52l-13.43-31.92-8.3,18.73-20.84.32c-.92.01-2.76-1.15-3.17-1.79-.51-.8,1.32-3.02,2.45-3.02h18.66s9.11-20.88,9.11-20.88c.27-.61,1.67-1.92,2.01-1.65l2.28,1.82,12.58,29.68,8.67-13.51c1.42-1.4,5.7,2.14,6.78,4.38l20.75.19c.91,0,2.54,1.33,2.87,2.04s-1.74,2.69-2.6,2.69l-19.23.06c-2.17,0-4.6-1.63-7.08-3.65Z"/>
  </g>
</svg>