<?xml version="1.0" encoding="UTF-8"?>
<svg id="Capa_2" data-name="Capa 2" xmlns="http://www.w3.org/2000/svg" viewBox="0 0 91.53 147.44">
  <defs>
    <style>
      .cls-1 {
        fill: #8cc63f;
      }
    </style>
  </defs>
  <g id="Capa_1-2" data-name="Capa 1">
    <path class="cls-1" d="M43.39,10.46l-.19,36.45c-.04,8.26-5.36,14.68-12.25,18.95l2.44,70.96c.24,6.89-5.56,10.83-11.91,10.61-6.14-.22-11.08-4.12-10.9-10.61l2.04-71.26C3.21,60.53-.1,51.69,0,41.8L.31,11.1c.03-3.09,1.71-5.95,4.37-7.12,2.37-1.04,6.58-.63,8.19,2.51,1.19,2.33.24,7.07.5,9.65l1.57,15.56.31-21.83c.04-2.85,2.72-5.6,5.2-6.41,2.19-.72,7.3,1.21,7.48,4l1.22,19.14.96-18.43c.15-2.8,4.6-5.12,6.87-4.78,3.02.45,6.41,3.21,6.39,7.07ZM28.94,138.53l-2.35-70.14c-.34-9.99,11.04-7.63,12.27-21.48V10s-2.52-2.38-2.52-2.38c-.6-.57-2.38,1.86-2.42,2.82l-.98,22.19c-.1,2.31-2.77,4.23-4.76,4.09-1.39-.1-3.63-2.22-3.64-4.17l-.15-22.67c0-.85-1.75-2.74-2.43-2.72s-2.44,1.85-2.46,2.7l-.49,23.37c-.05,2.38-3.35,3.95-5.07,3.47-1.34-.37-3.2-2.69-3.29-4.32l-1.21-22.33c-.05-1-2.17-3.06-2.75-2.38l-1.93,2.25-.07,36.01c.61,14.2,12.57,13.75,12.35,21.52l-1.96,71.47c.02,2.72,4.89,4.24,6.86,4.12s7.12-1.14,7-4.49Z"/>
    <path class="cls-1" d="M70.93,137.29l1.17-52.57c-5.33-1.58-8.69-5.74-8.67-11.23l.1-34.78c.04-14.67,6.64-37.38,20.27-38.67,4.59-.44,7.66,2.54,7.66,7.04l.07,130.79c0,6.06-4.16,9.25-9.71,9.46-5.89.22-11.05-3.18-10.9-10.04ZM76.6,81.65l-.93,58.26c-.03,1.68,4.16,3.14,5.71,3.09s5.16-1.23,5.68-3.07l-.08-135.42c-11.88-2.39-18.59,19.61-18.72,31.09l-.42,36.7c-.06,5.06,2.73,8.29,8.77,9.36Z"/>
  </g>
</svg>