<?xml version="1.0" encoding="UTF-8"?>
<svg id="Capa_2" data-name="Capa 2" xmlns="http://www.w3.org/2000/svg" viewBox="0 0 135.02 137.97">
  <defs>
    <style>
      .cls-1 {
        fill: #8cc63f;
      }
    </style>
  </defs>
  <g id="Capa_1-2" data-name="Capa 1">
    <path class="cls-1" d="M4.6,12.99l.04,112.29c0,4.94,5.79,8.05,9.79,8.27l49.28-.11,2.19,1.96c.63.56-1.58,2.2-2.4,2.43l-50.06.15C5.31,137.12-.02,130.77,0,122.6L.21,11.11C.22,6.41,7,0,11.51,0l88.6.03c7.53,0,12.01,7.83,12.01,13.94v41.4s-2.15,1.9-2.15,1.9c-.58.51-2.1-1.4-2.34-2.17V13.17c-.41-4.64-3.63-8.77-8.65-8.77H13.61c-3.92.01-9.01,3.57-9,8.59Z"/>
    <path class="cls-1" d="M70.23,130.63c-1.73.55-4.07-3.01-3.66-4.62l5.34-20.64,40.53-42.29c3.85-4.01,9.57-5.31,13.86-.99l6.55,6.6c3.68,3.71,2.22,9.34-1.03,12.7l-41.19,42.71-20.4,6.53ZM125.88,81.23c2.18-2.45,3.94-4.87,5.1-7.87l-10.47-10.07c-2.95.94-5.5,3.27-7.25,5.78l12.62,12.15ZM90.44,118.01l32.23-33.72-12.72-12.1-32.13,33.55,12.62,12.27ZM86.75,120.77l-11.32-11.28-4.05,16.23,15.37-4.95Z"/>
    <path class="cls-1" d="M88.09,34.23l-62.4.11c-1.04-.29-2.62-.89-3.34-1.32-.89-.54,1.33-3.28,2.39-3.47l63.08.06,2.12,1.65c.57.44-.88,2.13-1.86,2.98Z"/>
    <path class="cls-1" d="M88.46,59.3l-64.74.05-1.6-2.72c-.35-.59,1.83-1.51,2.58-1.68h62.42s2.69,1.07,2.69,1.07c.7.28-.47,2.36-1.35,3.27Z"/>
    <path class="cls-1" d="M69.84,83.83l-45.23.07c-.48,0-2.97-1.19-2.58-1.75l2.12-3.05,45.71.12,2.75,2.12c.76.59-1.87,2.52-2.77,2.49Z"/>
    <path class="cls-1" d="M54.56,108.42l-29.91.03-2.32-1.8c-.65-.5,1.63-2.54,2.67-2.54h29.4c.76-.01,2.84,1.15,2.78,1.89-.08.93-1.51,2.05-2.63,2.42Z"/>
  </g>
</svg>