<?xml version="1.0" encoding="UTF-8"?>
<svg id="Capa_2" data-name="Capa 2" xmlns="http://www.w3.org/2000/svg" viewBox="0 0 129.69 124">
  <defs>
    <style>
      .cls-1 {
        fill: #8cc63f;
      }
    </style>
  </defs>
  <g id="Capa_1-2" data-name="Capa 1">
    <path class="cls-1" d="M105.02,123.93l-74.15.07c-7.19,0-12.99-7.31-12.99-14.29l-.08-78.37L3.94,14.85C1.72,12.21-.72,9.61.2,6.18S4.21,0,8.34,0l113.51.03c4.61,0,7.78,2.69,7.85,6.94.12,8.21-9.48,5.55-11.93,8.71v95.05c-1.25,6.03-5.41,13.19-12.75,13.2ZM102.46,119.71c5.77,0,10.81-3.99,10.81-10.19l.04-93.79c0-7.62,9.01-5.44,11.8-7.58.58-.45.78-2.25.09-2.5l-3.39-1.24H7.4c-1.18.52-3.26,2.49-2.89,3.51.3.85,1.38,2.25,2.16,3.19l15.63,18.65.13,80c.01,6.47,5.75,9.99,11.45,9.99l68.58-.04Z"/>
    <path class="cls-1" d="M94.06,99.24l-23.56-.08c-.81,0-3.03-1.63-2.68-2.21s2.02-1.92,2.89-1.94l23.39-.31c.95-.01,2.97,1.42,2.83,2.26s-1.94,2.27-2.88,2.27Z"/>
    <path class="cls-1" d="M94.32,65.85l-23.23-.02c-.98,0-2.77-1.36-3.16-1.98-.48-.77,1.8-2.5,2.73-2.51l23.29-.2c1.08,0,2.79,1.32,2.98,2.17s-1.7,2.53-2.62,2.53Z"/>
    <path class="cls-1" d="M94.66,32.09l-22.93.03c-.8,0-2.37-.45-3.03-.67s.09-3.54.76-3.54l25.27-.13c.54,0,1.94,1.31,2.18,1.7.35.59-1.35,2.6-2.25,2.6Z"/>
    <path class="cls-1" d="M95.17,49.04l-18.85.17c-.84,0-2.61-1.69-2.53-2.44.1-.94,1.92-2.35,2.98-2.35l17.28.06c.74,0,2.27.91,2.8,1.32s-.99,3.23-1.69,3.24Z"/>
    <path class="cls-1" d="M94.76,82.6l-17.67.08c-.94,0-2.92-1.47-3.1-2.21-.23-.93,1.68-2.4,2.87-2.39l17.05.04c.82,0,2.44,1.08,2.95,1.51s-1.38,2.97-2.09,2.97Z"/>
  </g>
</svg>