<?xml version="1.0" encoding="UTF-8"?>
<svg id="Capa_2" data-name="Capa 2" xmlns="http://www.w3.org/2000/svg" viewBox="0 0 176.06 119.03">
  <defs>
    <style>
      .cls-1 {
        fill: #8cc63f;
      }
    </style>
  </defs>
  <g id="Capa_1-2" data-name="Capa 1">
    <path class="cls-1" d="M175.73,52.66l.33,57.98c.03,5.41-3.56,8.27-8.97,8.35-4.32.07-8.91-2.24-8.92-7.33l-.04-12.86H18.02s-.63,14.77-.63,14.77c-.16,3.81-5.53,5.41-8.32,5.45-2.61.04-8.51-1.53-8.98-5.44L0,7.4C0,2.5,5.35.01,9.05,0s8.69,2.65,8.71,7.45l.13,27.66c2.43-3.8,6.38-7.18,11.18-7.14l23.34.21c4.24.04,8.16,4.7,9.45,7.64,1.83,4.18,1.33,9.71-2.27,13.82l88.91-.09c3.16,0,7.18,2.23,9.23,3.73,1.89-3.44,4.74-6.24,8.31-6.78,2.85-.43,9.67,1.39,9.69,6.17ZM171.45,112.6l.16-58.29c0-2.24-3.99-3.83-5.84-3.3-1.42.4-3.26,2.7-3.28,4.43l-.3,24.76H13.63s-.02-72.77-.02-72.77c-.89-1.46-3.18-3.14-4.55-3.18-1.16-.03-3.41,1.32-4.65,2.5l.05,105.9c.75,2.49,8.4,2.33,8.89.03l.42-18.03,148.42-.04.52,18.04c.14,2.3,8.73,2.59,8.74-.06ZM53.66,48.87c4.71-.64,5.56-7.8,4.45-10.52-1.28-3.15-4.5-6.32-8.58-6.3l-19.38.08c-4.83.02-8.3,3.68-8.88,7.85-.45,3.23,1.47,9.04,5.84,9.24,8.66.4,17.79.85,26.55-.35ZM39.61,75.69l-.12-21.36-21.65.21-.07,21.45,21.83-.3ZM157.91,63.19c-.03-5.89-5.26-8.8-10.2-8.79l-103.87.05v21.42s114.14,0,114.14,0l-.08-12.69Z"/>
  </g>
</svg>