<?xml version="1.0" encoding="UTF-8"?>
<svg id="Capa_2" data-name="Capa 2" xmlns="http://www.w3.org/2000/svg" viewBox="0 0 142.97 143.68">
  <defs>
    <style>
      .cls-1 {
        fill: #8cc63f;
      }
    </style>
  </defs>
  <g id="Capa_1-2" data-name="Capa 1">
    <path class="cls-1" d="M15.75,31.48c-6.01-.03-11.23,3.2-11.24,9.48v88.53c0,4.94,3.45,9.64,8.8,9.65l115.51.05c5.73,0,9.67-4,9.67-9.72l.03-87.92c0-5.92-3.84-10-9.72-10l-41.97.02-.02,9.98c0,3.36-2.62,6.04-5.95,6.05l-17.71.07c-1.94,0-5.64-1.94-5.61-4.12l.45-33.14c.09-6.65,8.01-10.14,13.44-10.39,5.86-.27,13.21,2.87,14.63,9.58,1.13,5.33.69,10.76.66,17.45l41.09-.05c9.45-.01,15.16,6.14,15.16,15.63l-.07,84.8c0,4.78-.64,8.82-3.61,11.95-3.2,3.37-7.35,4.32-12.53,4.32H17.43c-4.92,0-8.93-.12-12.44-3.24C1.86,137.68,0,133.45,0,128.46L.16,39.75c.01-7.55,7.35-12.77,13.92-12.64l36.08-.08,2.35,1.81c.71.55-1.48,2.84-2.63,2.84l-34.14-.19ZM82.48,43.37l-.06-29.54c-.01-5.48-5.5-9.62-10.35-9.62s-10.32,4.13-10.31,9.81l.04,29.4,20.68-.05Z"/>
    <path class="cls-1" d="M63.37,121.29l-41.62-.04c-1.03-1.48-1.53-4.07-1.75-6.06-1.19-10.74,5.63-21.29,16.94-21.35l14.08-.08c11.68-.07,19.51,10.32,17.58,21.47l-.82,4.71c-.18,1.03-3.03,1.35-4.41,1.35ZM64.03,116.88c2.45-10.06-4.79-18.79-12.85-18.82l-13.43-.05c-4.19-.01-9.14,3.22-10.89,6.03-2.43,3.89-2.66,8.5-2.17,13.03l39.34-.2Z"/>
    <path class="cls-1" d="M39.94,59.56c8.76-2.71,17.41,2.66,19.56,10.79,2.16,8.19-2.45,16.82-10.86,19.36-7.75,2.34-16.26-2.12-19.14-9.84s1.28-17.47,10.44-20.31ZM42.97,63.6c-7.18,1.03-10.75,7.28-9.79,12.85,1.13,6.51,6.62,9.82,12.41,9.26,6.53-.64,10.89-6.12,9.89-12.9-.78-5.24-5.96-10.14-12.5-9.2Z"/>
    <path class="cls-1" d="M121.71,74.03l-37.83.14c-.56-.15-3.1-1.95-2.52-2.53l2.45-2.48,37.65.08,1.9,1.92c.48.48-.61,1.67-1.65,2.88Z"/>
    <path class="cls-1" d="M121.78,112.04l-37.93.04c-.49-.07-3.21-2.02-2.58-2.56l2.59-2.21,37.54.08,1.97,1.67c.51.43-.6,1.78-1.57,2.98Z"/>
    <path class="cls-1" d="M121.71,92.75l-37.93.03c-.43-.06-2.74-1.29-2.33-1.75l2.29-2.54,37.99-.04,1.79,1.88c.51.54-1.05,1.98-1.81,2.41Z"/>
    <path class="cls-1" d="M77.99,17.49c.35,4.36-2.59,7.31-5.96,7.32s-6.2-2.95-6.06-6.89c.12-3.36,2.23-6.11,5.03-6.5,3.44-.47,6.64,1.66,7,6.07Z"/>
  </g>
</svg>