<?xml version="1.0" encoding="UTF-8"?>
<svg id="Capa_2" data-name="Capa 2" xmlns="http://www.w3.org/2000/svg" viewBox="0 0 149.67 129.15">
  <defs>
    <style>
      .cls-1 {
        fill: #8cc63f;
      }
    </style>
  </defs>
  <g id="Capa_1-2" data-name="Capa 1">
    <path class="cls-1" d="M81.42,126.41c-4.03,3.36-8.63,3.71-12.38.59-18.59-15.49-36.56-31.29-53.07-48.94C7.53,69.05,1.68,58.72.28,46.69-1.91,27.8,8.81,10.26,25.68,3.24c17.48-7.27,37.67-1.83,49.32,14.39C85.75,2.64,104.37-3.67,121.64,2.14c16.36,5.5,28.12,21.24,28.03,39.51-.07,13.35-5.56,24.93-14.65,34.87-16.47,18.01-34.51,34-53.6,49.9ZM123.1,82.87c6.22-5.6,11.33-12.06,15.68-19.04,6.7-10.75,8.53-23.48,4.19-35.11-5.28-14.15-17.84-23.28-31.99-24.16-15.21-.95-27.95,6.92-36.03,21.08-6.88-11.76-15.83-18.75-28.14-20.72-13.29-2.13-26.5,3.77-34.32,13.91-14.23,18.45-8.37,40.57,8,57.7,15.77,16.49,32.59,31.23,49.98,46.04,2.75,2.34,5.89,2.46,8.54.07l44.08-39.75Z"/>
    <path class="cls-1" d="M94.88,69.29l-4.99-4.53-11.2,26.81-2.47,1.69c-.7.48-2.06-1.96-2.11-2.7l-15.18-45.46-9.7,23.97-27.58.29c-1.15.01-3.1-1.96-2.7-2.77s2.49-1.8,3.4-1.79l23.8.2,10.56-27.04c.23-.59,1.67-2.13,2.19-1.78l2.33,1.56,15.57,46.82,9.92-23.8c.29-.7,1.56-2.17,2.21-2.42.82-.31,2.55.8,3.16,1.51l4.37,5.05,23.44-.1c.87,0,2.88.99,3.38,1.7s-1.82,2.73-2.96,2.73l-25.46.04Z"/>
  </g>
</svg>