<?xml version="1.0" encoding="UTF-8"?>
<svg id="Capa_2" data-name="Capa 2" xmlns="http://www.w3.org/2000/svg" viewBox="0 0 139.69 128.39">
  <defs>
    <style>
      .cls-1 {
        fill: #8cc63f;
      }
    </style>
  </defs>
  <g id="Capa_1-2" data-name="Capa 1">
    <path class="cls-1" d="M126.3,128.33l-107.35.06c-7.14,0-12.52-1.76-16.08-7.24-3.53-5.45-3.93-12.3-.5-18.29L57.85,6.05C60.29,1.78,66.37-.12,70.36,0c4.85.15,9.82,2.8,12.48,7.45l55.7,97.62c3.55,10.09-1.3,20.38-12.24,23.25ZM124.78,123.86c4.91,0,8.46-4.58,9.63-7.39,1.63-3.94.81-8.18-1.41-12.07L78.8,9.41c-1.92-3.37-5.89-5.05-9.26-4.93s-6.92,2.08-8.84,5.44L5.67,106.15c-1.96,3.43-1.36,8.79.41,11.87,1.34,2.33,5.01,5.86,8.72,5.86h109.98Z"/>
    <path class="cls-1" d="M74.17,83.13c-.09,3.25-1.42,5.67-3.59,5.89-3.65.37-4.98-2-5.08-5.4l-1.15-40.54c-.08-2.83,1.41-5.62,3.43-6.37,2.8-1.04,7.64.41,7.55,3.8l-1.16,42.62Z"/>
    <path class="cls-1" d="M68.22,98.45c3-1.27,6.34,1.35,6.8,3.4.72,3.23-.64,6.3-2.89,7.12-3.07,1.11-6.36-.34-7.18-2.56-1.06-2.89-.16-6.5,3.26-7.95Z"/>
  </g>
</svg>