<?xml version="1.0" encoding="UTF-8"?>
<svg id="Capa_2" data-name="Capa 2" xmlns="http://www.w3.org/2000/svg" viewBox="0 0 126.75 137.94">
  <defs>
    <style>
      .cls-1 {
        fill: #8cc63f;
      }
    </style>
  </defs>
  <g id="Capa_1-2" data-name="Capa 1">
    <path class="cls-1" d="M86.99,4.98c9.26-7.78,21.79-5.92,28.95,1.93,7.91,8.67,7.51,21.27-.99,29.51,11.9,18.15,16.07,40.48,6.57,62.65-15.73,36.69-59.64,49.56-91.51,29.29C-1.37,108.39-9.46,66.83,12.02,36.58,3.25,28.45,2.89,14.99,11.36,6.24c8.39-8.23,21.7-8.52,30.71.57l1.89,6.49c12.59-4.31,26.55-4.01,39.21.22.34-3.37,1.41-6.5,3.82-8.54ZM30.49,19.03l9.24-7.47c-6.27-8.62-17.27-8.96-24.41-2.59-6.76,6.04-8.01,17.18-.89,23.38l16.06-13.31ZM112.54,32.21c5.32-4.71,5.79-11.56,3.16-17.35-2.45-5.39-7.43-9.47-12.36-10.09-6.57-.82-11.97.95-16.08,6.69l6.67,5.66,18.62,15.09ZM115.22,101.79c10.01-19.12,9.38-40.32-1.77-58.88-9.44-15.71-26.52-26.88-46.68-28.21-20.74-1.37-40.96,9.16-51.74,25.28C2.74,58.33.99,80.17,10.27,99.59c9.74,20.39,29.45,33.27,51.35,33.79,22.18.53,42.92-11.19,53.59-31.6Z"/>
    <path class="cls-1" d="M110.79,90.14c-8.27,25.19-33.91,38.63-58.79,32.99-25.14-5.7-41.59-29.58-38.39-55.82,3.64-29.92,32.15-49.23,60.88-42.61,28.92,6.66,45.93,36.1,36.3,65.45ZM65.54,119.99c23.4-1.02,42.3-20.27,43.52-44.33l-7.07-.13c-.83-.02-2.61-1.64-2.37-2.43.18-.6,1.69-1.95,2.31-1.95l7.19.05c-1.61-23.33-19.81-42-43.51-43.33l-.3,7.74c-.03.71-1.85,2.41-2.35,1.91-.37-.37-1.58-1.71-1.61-2.23l-.36-7.38c-23.93.99-41.96,20.31-43.33,43.29l7.49.13c.74.01,2.5,2.03,2.07,2.68-.32.48-1.65,1.5-2.2,1.5h-7.35c.95,24.06,19.48,43.02,43.32,44.49l.27-7.39c.03-.74,1.47-2.27,2.21-2.11.56.12,1.93,1.49,1.94,2.13l.15,7.37Z"/>
    <path class="cls-1" d="M84.14,89.68c.65.6.66,3.48-.07,3.61s-2.72-.18-3.5-.88l-16.81-15.16c-3.19-2.88-3.03-2.66-2.95-7.06l.43-23.37c.01-.64,1.34-2.28,1.68-2.7.45-.54,2.44,1.35,2.45,2.22l.29,23.86c.04,3.18,3.86,6.04,6.05,8.05l12.43,11.42Z"/>
  </g>
</svg>