<?xml version="1.0" encoding="UTF-8"?>
<svg id="Capa_2" data-name="Capa 2" xmlns="http://www.w3.org/2000/svg" viewBox="0 0 147.12 137.3">
  <defs>
    <style>
      .cls-1 {
        fill: #8cc63f;
      }
    </style>
  </defs>
  <g id="Capa_1-2" data-name="Capa 1">
    <path class="cls-1" d="M31.31,105.41l23.4-17.22c-4.87-9.26-4.57-20.25,2.66-28.71l-15.73-15.59c-7.7,5.41-15.99,4.99-22.75.1-6.08-4.41-8.72-12.72-6.26-20.72,3.49-11.33,16.37-16.22,26.46-10.87s13.43,18.52,5.79,28.4l15.58,15.67c9.04-7,20.62-7.79,30.06-1.01l19.92-23.35c-6.58-7.31-6.48-18.58.24-25.9,7.1-7.74,18.74-8.15,26.54-1.69,7.76,6.43,8.93,18.06,3.47,25.79-6.31,8.93-17.66,11.06-26.99,4.96l-19.73,23.01c7.25,8.11,8.94,19.08,4.09,29.05l18.08,11.87c7.19-7.57,17.49-7.79,24.57-2.07s8.39,16.31,3.45,23.62c-5.22,7.7-15.6,10.1-23.51,5.58-7.88-4.49-10.97-14.53-6.94-23.13l-18.07-12.33c-9.59,11.83-27.77,12.91-38.21.49l-23.36,17.74c5.07,8.39,2.78,18.7-4.36,24.29-7.97,6.25-18.9,4.79-25.2-2.51-6.2-7.17-6.06-18.2.77-25.15s18.04-7.69,26.03-.31ZM119.91,5.44c-8.41,2.76-11.56,12.22-9.01,19.12,2.9,7.82,11.35,11.11,18.22,9.03,8.4-2.55,12.27-11.42,9.83-18.79-2.56-7.75-10.57-12.14-19.05-9.36ZM25.72,15.42c-8.48,2.81-11.29,11.8-8.88,18.37,2.84,7.77,10.73,10.99,17.23,9.12,8.48-2.43,12.22-10.94,9.95-18.12-2.36-7.48-10.24-12.05-18.3-9.38ZM84.78,93.81c11.55-5.2,15.08-19.46,8.27-29.36s-18.39-11.84-27.67-6.12-12.17,17.27-7.32,26.26c5.02,9.32,16.17,13.96,26.72,9.22ZM125.03,98.34c-7.65,2.73-10.29,11.27-7.89,17.25,2.8,6.97,10.17,10.16,16.09,8.14,7.63-2.6,11.04-10.37,8.82-16.98s-9.52-11.08-17.02-8.41ZM13.53,105.67c-8.11,2.96-10.78,11.8-8.06,18.26,3.06,7.25,11.01,10.47,17.33,8.16,8.02-2.93,11.3-10.74,8.76-18.2-2.38-6.97-10.32-11.03-18.04-8.22Z"/>
  </g>
</svg>