<?xml version="1.0" encoding="UTF-8"?>
<svg id="Capa_2" data-name="Capa 2" xmlns="http://www.w3.org/2000/svg" viewBox="0 0 153.51 126.2">
  <defs>
    <style>
      .cls-1 {
        fill: #8cc63f;
      }
    </style>
  </defs>
  <g id="Capa_1-2" data-name="Capa 1">
    <path class="cls-1" d="M126.95,65.51l-99.47-.06-.58,22.48h22.76c4.77,0,8.14,3.84,8.14,8.55l.02,21.54c0,4.63-3.65,8.18-8.22,8.17H8.68C3.24,126.18-.01,122.12,0,117.04l.06-20.68c.01-3.98,3.17-8.26,7.48-8.31l15-.16.13-21.3c.02-2.49,4.24-5.44,6.73-5.45l45.33-.05-.08-21.47-18.91.28c-5.72.08-9.82-3.25-9.81-9.17l.02-22.01C45.94,3.13,50.45-.02,55.68,0l45.05.2c4.29.02,7.13,4.37,7.15,8.17l.09,22.83c.01,3.39-2.89,8.4-6.87,8.43l-21.77.14-.15,21.34,45.75.08c4.07,0,6.55,3.96,6.53,7.57l-.08,19.19,14.5.07c4.47.02,7.54,4.61,7.55,8.64l.06,20.34c.01,4.24-2.76,9.12-7.77,9.13l-41.94.07c-3.56,0-7.99-3.51-8.01-7.07l-.12-22.77c-.02-3.61,3.02-8.24,7.07-8.28l24.42-.21-.21-22.36ZM99.89,35.24c1.72,0,3.86-2.43,3.86-4.07l-.02-22.8c0-1.37-2.5-3.89-3.99-3.89h-45.14c-2.56-.01-4.17,2.49-4.18,4.82l-.09,21.96c0,1.54,2.55,4.03,4.21,4.03l45.35-.05ZM49.55,121.87c2-.37,4.15-2.74,4.14-4.66l-.07-20.96c0-1.38-2.39-3.95-3.88-3.95H8.49c-1.67,0-4.01,2.37-4.01,4.03l.04,21.77c0,1.22,2.14,3.36,3.29,3.72l41.75.05ZM145.21,121.83c1.56,0,3.76-2.42,3.76-3.69l-.02-21.83c0-1.6-2.38-4.03-4.01-4.02l-41.17.06c-1.37,0-3.72,2.81-3.72,4.36l.03,20.22c0,3.61,2.56,4.95,5.69,4.94l39.44-.04Z"/>
  </g>
</svg>