<?xml version="1.0" encoding="UTF-8"?>
<svg id="Capa_2" data-name="Capa 2" xmlns="http://www.w3.org/2000/svg" viewBox="0 0 134.78 133.04">
  <defs>
    <style>
      .cls-1 {
        fill: #8cc63f;
      }
    </style>
  </defs>
  <g id="Capa_1-2" data-name="Capa 1">
    <path class="cls-1" d="M69.93,73.67l-.45,39.08c5.33,2.06,8.72,6.01,7.96,11.16s-4.29,8.94-9.63,9.13c-4.87.17-9.2-3.18-10.24-8.34-1.04-5.18,2.19-9.73,7.58-11.94v-39.59s-28.8,27.78-28.8,27.78c1.45,5.22,1.09,10.43-2.53,13.34-4.36,3.52-10.06,2.91-13.69-.56-3.69-3.54-3.86-8.97-1.39-12.74,3.18-4.86,8.85-5.43,14.28-3.07l28.61-27.61-41.24-.1c-2.09,5.09-5.86,8.42-10.99,8.03C4.25,77.87.21,73.51,0,68.55c-.22-5.42,3.81-9.8,8.51-10.67,5.82-1.08,9.84,2.69,11.92,7.89l41.36-.14-28.68-28.69c-5.19,2.5-10.37,2.03-13.83-2.02-2.92-3.41-3.14-9.41.59-13.34,3.09-3.25,8.62-4.21,13.06-1.52s4.92,8.1,3.33,13.63l28.85,28.72.11-42.5c-4.79-1.91-8.2-5.48-7.78-10.45C57.89,4,61.76.28,66.92.01c5.11-.26,9.11,3.12,10.19,7.77,1.26,5.45-2.16,9.76-7.39,12.08l-.03,42.8,20.63-20.54,8.41-8.39c-1.77-4.5-1.82-10.43,2.87-13.48,3.85-2.5,9.65-2.48,13.19,1.02s3.62,9.53.61,13.58c-3.08,4.13-8.41,4.91-13.28,1.83l-16.28,16.29-13.02,12.9,41.57-.15c2.03-4.66,5.36-8.42,10.74-7.97s9.46,4.19,9.63,9.96c.14,4.83-3.65,9.57-8.71,10.46-5.5.96-9.47-2.93-11.65-8.07l-41.4.05,28.73,27.82c5.1-2.2,10.24-2.02,13.77,2.3,2.94,3.6,2.97,9.54-.98,13.49-3.17,3.17-8.38,4.05-13.09.96-3.84-2.53-5.1-8.13-2.62-13.4l-28.89-27.67ZM67.41,4.21c-4.27.35-6.05,3.56-5.47,7.07.37,2.23,3.01,4.77,6.46,4.47,2.29-.2,4.79-3.1,4.87-6.15.06-2.17-3.2-5.61-5.86-5.39ZM24.34,23.63c-3.37,1.99-3.51,6.14-1.83,8.23,1.87,2.32,5.13,2.81,6.97,1.89,3.11-1.56,4.13-5.73,2.93-7.9-1.52-2.75-5.06-4-8.07-2.23ZM104.31,23.65c-3.38,2.36-3.1,6.63-.82,8.9,1.67,1.66,5.21,2.17,7.24.85,2.77-1.8,3.14-5.69,1.7-7.95-1.55-2.42-5.58-3.57-8.12-1.8ZM8.42,62.43c-3.48,1.36-4.69,4.96-3.39,8.07,1.07,2.56,4.74,4.06,7.97,2.48,2.28-1.11,3.74-4.69,2.5-7.59-1-2.34-4.36-4.03-7.09-2.97ZM122.44,62.6c-3.35,1.16-4.34,5.18-3.23,7.47,1.39,2.85,4.65,4.22,7.69,3.15,2.37-.83,3.98-4.39,3.26-6.85-.87-2.95-4-5.05-7.73-3.76ZM24.4,101.54c-3.27,1.93-3.44,6.19-1.93,8.16,1.87,2.44,5.27,2.9,7.23,2.03,3.08-1.37,3.83-5.46,2.6-8.06-1.17-2.46-5.02-3.82-7.9-2.12ZM105.22,101.28c-4.16,1.75-4.22,5.76-2.31,8.59,1.28,1.9,4.75,3.07,7.23,1.84s3.84-5.02,2.67-7.65c-1.07-2.41-4.77-3.96-7.59-2.77ZM64.69,117.84c-3.26,1.61-3.65,5.62-1.76,8.39,1.52,2.22,5.19,3.12,7.86,1.36,2.31-1.53,3.17-5.49,1.63-7.79s-5.24-3.19-7.73-1.96Z"/>
  </g>
</svg>